<?xml version="1.0" encoding="UTF-8"?><svg id="a" xmlns="http://www.w3.org/2000/svg" viewBox="0 0 20 20"><path d="M2.24,6.95c.02-.08,.04-.16,.07-.24,.18-.55,.7-.94,1.29-.96,.04,0,.07,0,.11,0,4.19,0,8.38,0,12.57,0,.66,0,1.19,.36,1.39,.95,.05,.16,.08,.33,.08,.49,0,1.87,0,3.75,0,5.62,0,.84-.62,1.46-1.46,1.46-4.2,0-8.39,0-12.59,0-.74,0-1.25-.42-1.44-1.15,0-.03-.02-.07-.03-.1V6.95Zm7.75-.16c-1.55,0-3.09,0-4.64,0-.1,0-.16,.02-.2,.13-.34,.83-.92,1.42-1.75,1.77-.09,.04-.11,.08-.11,.17,0,.76,0,1.51,0,2.27,0,.1,.03,.14,.12,.18,.81,.37,1.4,.96,1.75,1.78,.04,.08,.08,.11,.17,.11,3.11,0,6.21,0,9.32,0,.09,0,.13-.03,.16-.11,.34-.85,.93-1.45,1.77-1.8,.09-.04,.11-.08,.11-.17,0-.75,0-1.49,0-2.24,0-.09-.03-.13-.11-.16-.84-.32-1.41-.92-1.74-1.75-.05-.14-.12-.17-.26-.17-1.53,0-3.06,0-4.59,0Z"/><path d="M9.99,7.48c1.39,0,2.51,1.14,2.51,2.52,0,1.39-1.14,2.52-2.53,2.51-1.39-.01-2.51-1.13-2.5-2.52,0-1.39,1.13-2.51,2.52-2.51Zm.24,1.02s0-.04,0-.06c-.01-.35-.01-.34-.35-.33-.09,0-.12,.03-.11,.12,0,.04,0,.08,0,.12,.02,.14-.02,.22-.18,.27-.38,.11-.59,.39-.61,.74-.01,.37,.2,.6,.52,.75,.17,.08,.35,.14,.52,.21,.23,.1,.32,.22,.29,.37-.03,.14-.18,.25-.41,.23-.27-.02-.53-.09-.81-.14-.02,.09-.04,.22-.09,.34-.05,.14,0,.2,.12,.23,.21,.05,.42,.1,.64,.15v.4h.43v-.43c.15-.06,.29-.1,.42-.18,.56-.33,.56-1.08,0-1.41-.09-.05-.19-.09-.29-.13-.15-.07-.3-.12-.44-.2-.11-.06-.21-.13-.18-.28,.03-.14,.15-.19,.27-.2,.1-.01,.2-.01,.3,0,.17,.03,.33,.08,.5,.12l.13-.53-.66-.16Z"/></svg>