<svg id="svg" version="1.1" xmlns="http://www.w3.org/2000/svg" xmlns:xlink="http://www.w3.org/1999/xlink" width="400" height="400" viewBox="0, 0, 400,400"><g id="svgg"><path id="path0" d="M150.101 1.400 C 150.105 2.280,150.187 2.593,150.283 2.095 C 150.379 1.598,150.375 0.878,150.275 0.495 C 150.175 0.113,150.096 0.520,150.101 1.400 M133.200 3.515 C 133.200 3.762,132.550 4.086,131.756 4.235 C 130.189 4.529,128.373 6.239,127.935 7.834 C 127.621 8.974,128.258 9.125,129.057 8.100 C 129.576 7.433,129.590 7.433,129.358 8.100 C 128.993 9.149,129.961 8.957,130.871 7.800 C 131.304 7.250,131.856 6.800,132.099 6.800 C 132.341 6.800,132.103 7.267,131.570 7.838 L 130.600 8.876 131.600 8.738 C 132.517 8.612,132.599 8.433,132.590 6.600 C 132.583 5.270,132.784 4.444,133.189 4.133 C 133.524 3.876,133.664 3.531,133.499 3.366 C 133.335 3.201,133.200 3.269,133.200 3.515 M129.343 3.997 C 128.260 4.434,127.195 5.931,127.216 6.989 C 127.227 7.565,127.405 7.400,127.831 6.418 C 128.572 4.709,128.435 4.835,130.270 4.181 C 131.112 3.881,131.440 3.639,131.000 3.643 C 130.560 3.647,129.814 3.806,129.343 3.997 M267.600 4.326 C 267.600 4.505,268.222 4.949,268.983 5.311 C 269.790 5.696,270.706 6.601,271.182 7.485 C 271.960 8.927,271.988 8.942,271.767 7.800 C 271.611 6.991,271.658 6.774,271.912 7.134 C 272.214 7.562,272.341 7.531,272.554 6.976 C 272.700 6.596,272.725 6.191,272.609 6.076 C 272.494 5.961,272.400 6.112,272.400 6.412 C 272.400 6.723,271.827 6.402,271.067 5.665 C 270.187 4.812,269.508 4.460,269.067 4.630 C 268.692 4.774,268.400 4.692,268.400 4.443 C 268.400 4.199,268.220 4.000,268.000 4.000 C 267.780 4.000,267.600 4.147,267.600 4.326 M270.830 5.900 L 271.800 7.000 270.600 6.000 C 269.940 5.450,269.325 4.955,269.233 4.900 C 269.142 4.845,269.245 4.800,269.464 4.800 C 269.682 4.800,270.297 5.295,270.830 5.900 M103.570 14.913 C 103.170 16.089,103.274 16.917,103.745 16.306 C 104.039 15.925,104.396 15.730,104.540 15.873 C 104.683 16.016,104.800 15.943,104.800 15.709 C 104.800 15.361,103.667 14.627,103.570 14.913 M295.800 15.200 C 295.461 15.749,295.920 16.400,296.647 16.400 C 296.977 16.400,297.134 16.217,296.996 15.993 C 296.858 15.770,296.547 15.709,296.304 15.859 C 296.021 16.034,295.955 15.894,296.119 15.466 C 296.399 14.736,296.193 14.564,295.800 15.200 M92.133 21.361 C 92.133 21.992,92.657 21.971,93.800 21.297 C 94.500 20.883,94.513 20.823,93.900 20.812 C 93.515 20.805,93.200 21.002,93.200 21.249 C 93.200 21.578,93.057 21.579,92.667 21.255 C 92.266 20.923,92.133 20.949,92.133 21.361 M91.616 24.581 C 91.351 24.900,91.201 25.485,91.282 25.881 C 91.390 26.405,91.556 26.248,91.895 25.300 C 92.405 23.869,92.342 23.706,91.616 24.581 M75.043 32.967 C 75.176 33.315,75.461 33.600,75.676 33.600 C 76.202 33.600,75.873 32.691,75.275 32.492 C 74.982 32.394,74.893 32.577,75.043 32.967 M77.149 33.075 C 76.666 33.669,76.688 33.717,77.333 33.475 C 77.736 33.324,78.231 33.200,78.433 33.200 C 78.635 33.200,78.800 33.020,78.800 32.800 C 78.800 32.162,77.749 32.337,77.149 33.075 M74.246 33.366 C 74.447 33.896,74.394 34.043,74.073 33.845 C 73.770 33.658,73.692 33.774,73.847 34.179 C 74.126 34.904,74.639 34.984,75.024 34.362 C 75.173 34.121,74.994 33.626,74.626 33.262 C 74.003 32.645,73.977 32.653,74.246 33.366 M74.100 35.888 C 73.532 36.091,73.411 37.200,73.957 37.200 C 74.294 37.200,74.945 35.987,74.709 35.798 C 74.649 35.749,74.375 35.790,74.100 35.888 M68.400 39.033 C 67.685 39.430,67.593 39.590,68.076 39.594 C 68.448 39.597,68.866 39.417,69.004 39.193 C 69.142 38.970,69.451 38.908,69.689 39.055 C 69.949 39.215,70.009 39.137,69.838 38.862 C 69.681 38.608,69.518 38.418,69.476 38.439 C 69.434 38.461,68.950 38.728,68.400 39.033 M39.200 67.957 C 39.200 68.227,39.051 68.355,38.868 68.242 C 38.455 67.987,38.537 69.470,38.959 69.892 C 39.128 70.061,39.223 70.020,39.170 69.800 C 39.117 69.580,39.214 69.077,39.386 68.683 C 39.558 68.288,39.587 67.853,39.449 67.716 C 39.312 67.579,39.200 67.687,39.200 67.957 M33.800 74.000 C 34.047 74.400,33.948 74.466,33.409 74.259 C 32.771 74.014,32.751 74.061,33.243 74.666 C 33.734 75.268,33.716 75.318,33.100 75.087 C 32.285 74.782,32.239 74.952,32.837 76.069 C 33.153 76.660,33.153 77.007,32.837 77.323 C 32.153 78.007,32.300 79.600,33.047 79.600 C 33.497 79.600,33.630 79.356,33.484 78.799 C 33.355 78.305,33.528 77.848,33.937 77.606 C 34.354 77.360,34.450 77.101,34.195 76.907 C 33.942 76.715,34.129 76.268,34.695 75.714 C 35.193 75.227,35.600 75.002,35.600 75.214 C 35.600 75.426,35.780 75.600,36.000 75.600 C 36.220 75.600,36.355 75.375,36.300 75.100 C 36.237 74.784,36.604 74.628,37.300 74.675 C 37.905 74.717,38.400 74.571,38.400 74.352 C 38.400 74.132,38.220 74.064,38.000 74.200 C 37.780 74.336,37.600 74.257,37.600 74.024 C 37.600 73.791,37.240 73.600,36.800 73.600 C 36.360 73.600,36.000 73.799,36.000 74.043 C 36.000 74.286,35.730 74.376,35.400 74.243 C 35.070 74.109,34.500 73.879,34.134 73.732 C 33.646 73.535,33.557 73.607,33.800 74.000 M22.245 92.400 C 22.322 93.060,22.231 93.600,22.044 93.600 C 21.857 93.600,21.726 93.244,21.752 92.810 C 21.778 92.375,21.629 91.970,21.420 91.910 C 21.212 91.849,20.987 92.985,20.921 94.433 C 20.826 96.518,20.921 97.067,21.379 97.067 C 21.815 97.067,21.861 96.887,21.564 96.333 C 21.289 95.819,21.310 95.600,21.635 95.600 C 21.972 95.600,21.964 95.439,21.606 95.007 C 21.197 94.515,21.293 94.345,22.167 94.013 C 22.746 93.792,23.331 93.324,23.466 92.972 C 23.646 92.504,23.791 92.463,24.011 92.818 C 24.176 93.084,24.514 93.177,24.762 93.024 C 25.010 92.870,25.098 92.558,24.956 92.330 C 24.792 92.064,25.007 92.012,25.550 92.184 C 26.170 92.381,26.400 92.284,26.400 91.827 C 26.400 91.109,25.175 90.985,24.523 91.637 C 24.207 91.953,23.860 91.953,23.269 91.637 C 22.127 91.026,22.088 91.054,22.245 92.400 M89.600 101.821 C 88.610 102.133,87.312 102.391,86.715 102.394 C 84.506 102.406,80.705 107.323,79.729 111.431 C 78.348 117.246,78.542 149.508,79.993 155.085 C 80.377 156.562,83.236 159.779,85.000 160.719 C 86.559 161.550,115.778 161.959,122.367 161.242 C 126.578 160.784,129.600 159.352,129.600 157.815 C 129.600 157.531,129.862 157.080,130.183 156.814 C 130.692 156.392,130.684 156.120,130.120 154.665 C 127.854 148.824,125.226 147.966,108.800 147.700 L 97.400 147.516 95.726 145.900 C 91.462 141.785,91.829 123.371,96.244 119.848 C 98.925 117.709,133.740 117.276,149.800 119.182 C 160.315 120.430,246.452 120.427,257.200 119.178 C 265.532 118.210,293.077 117.688,303.134 118.308 C 310.224 118.744,310.111 118.685,312.567 123.283 L 314.000 125.966 314.005 131.883 C 314.012 139.502,313.073 143.610,310.785 145.968 L 309.301 147.497 297.750 147.688 C 283.236 147.929,280.890 148.425,278.420 151.774 C 275.667 155.508,275.614 156.050,277.781 158.339 C 280.696 161.418,280.558 161.400,301.800 161.400 L 320.200 161.400 322.331 160.219 C 323.504 159.570,324.723 158.535,325.042 157.919 C 325.360 157.304,325.788 156.800,325.993 156.800 C 329.063 156.800,330.025 118.586,327.146 111.000 C 324.916 105.125,322.754 103.060,317.667 101.949 C 313.032 100.936,92.801 100.812,89.600 101.821 M17.700 103.069 C 17.425 103.178,17.200 103.416,17.200 103.598 C 17.200 103.996,17.987 103.910,18.762 103.427 C 19.129 103.198,19.233 103.223,19.061 103.501 C 18.896 103.768,19.098 103.847,19.606 103.714 C 20.049 103.598,20.482 103.390,20.567 103.252 C 20.756 102.944,18.396 102.794,17.700 103.069 M15.177 103.367 C 14.918 103.741,14.944 106.400,15.207 106.400 C 15.409 106.400,15.460 106.700,15.319 107.066 C 15.141 107.530,15.214 107.639,15.559 107.425 C 15.832 107.257,15.966 106.889,15.859 106.608 C 15.751 106.327,15.857 105.903,16.094 105.666 C 16.403 105.357,16.381 105.059,16.014 104.617 C 15.332 103.795,15.946 103.827,16.869 104.662 C 17.690 105.405,17.835 104.940,17.087 103.965 C 16.722 103.490,15.382 103.070,15.177 103.367 M10.000 115.210 C 10.000 115.453,9.778 115.514,9.500 115.347 C 9.160 115.143,9.176 115.263,9.549 115.723 C 10.182 116.503,10.996 116.648,10.547 115.900 C 10.343 115.560,10.463 115.576,10.923 115.949 C 11.466 116.389,11.719 116.399,12.200 116.000 C 12.647 115.629,12.800 115.622,12.800 115.975 C 12.800 116.235,12.972 116.341,13.183 116.211 C 13.393 116.081,13.464 115.710,13.340 115.387 C 13.085 114.724,11.600 114.576,11.600 115.214 C 11.600 115.495,11.342 115.490,10.800 115.200 C 10.227 114.893,10.000 114.896,10.000 115.210 M8.800 116.753 C 8.800 116.948,9.252 117.193,9.803 117.299 C 10.616 117.454,10.721 117.386,10.355 116.945 C 9.849 116.336,8.800 116.207,8.800 116.753 M9.460 117.903 C 8.785 118.996,8.748 121.200,9.404 121.200 C 9.958 121.200,10.003 121.085,9.627 120.632 C 9.255 120.184,9.307 119.976,9.878 119.644 C 10.316 119.390,10.393 119.220,10.073 119.212 C 9.730 119.204,9.634 118.921,9.800 118.400 C 10.048 117.618,9.832 117.301,9.460 117.903 M155.200 121.476 C 151.497 122.096,147.600 124.384,147.600 125.937 C 147.600 126.256,147.008 127.256,146.286 128.159 C 144.280 130.663,143.485 132.053,143.178 133.594 C 143.024 134.367,142.416 136.800,141.828 139.000 C 139.535 147.571,138.804 153.889,138.794 165.200 C 138.788 172.874,138.049 180.251,135.809 195.000 C 135.241 198.740,134.582 203.330,134.346 205.200 C 134.109 207.070,133.488 210.670,132.965 213.200 C 130.955 222.926,129.600 232.582,129.600 237.179 C 129.600 244.809,127.896 261.179,125.850 273.200 C 125.532 275.070,125.153 278.130,125.009 280.000 C 124.864 281.870,124.386 285.920,123.946 289.000 C 122.097 301.961,123.242 305.974,129.952 310.052 L 132.103 311.360 146.552 311.645 C 154.590 311.803,162.242 312.143,163.800 312.412 C 166.730 312.917,174.233 312.754,181.000 312.038 C 185.746 311.535,222.098 311.533,226.200 312.035 C 232.828 312.845,239.208 312.911,244.772 312.224 C 248.616 311.750,253.055 311.574,260.372 311.603 C 274.359 311.660,276.878 311.165,280.170 307.709 C 283.343 304.378,284.302 300.003,283.369 293.105 C 283.064 290.847,282.360 285.310,281.805 280.800 C 281.250 276.290,280.532 270.890,280.209 268.800 C 279.154 261.971,278.407 254.759,277.782 245.400 C 276.845 231.343,275.377 219.106,273.774 212.000 C 272.329 205.588,270.827 197.081,270.575 193.877 C 270.450 192.295,270.008 188.210,269.592 184.800 C 268.422 175.203,267.658 166.553,267.197 157.689 C 266.965 153.228,266.601 148.658,266.388 147.534 C 266.174 146.410,266.000 144.852,266.000 144.071 C 266.000 143.290,265.722 141.470,265.383 140.026 C 265.043 138.582,264.493 136.230,264.160 134.800 C 263.827 133.370,263.073 131.480,262.484 130.600 C 261.894 129.720,261.230 128.711,261.006 128.357 C 257.767 123.231,256.870 122.516,252.772 121.794 C 249.580 121.233,158.431 120.936,155.200 121.476 M6.456 127.199 C 4.496 127.663,3.800 128.547,3.800 130.576 C 3.800 131.537,3.704 132.264,3.586 132.191 C 3.468 132.118,3.361 132.361,3.347 132.729 C 3.334 133.098,3.186 134.075,3.017 134.900 C 2.716 136.374,3.195 136.979,3.838 135.938 C 4.015 135.652,3.948 135.585,3.662 135.762 C 3.408 135.919,3.200 135.857,3.200 135.624 C 3.200 135.391,3.391 135.200,3.624 135.200 C 3.857 135.200,3.928 135.008,3.783 134.773 C 3.638 134.538,3.897 134.247,4.360 134.126 C 4.822 134.006,5.200 133.778,5.200 133.620 C 5.200 133.462,5.425 133.317,5.700 133.296 C 6.429 133.243,8.562 132.771,8.700 132.633 C 9.246 132.088,8.957 127.600,8.376 127.600 C 7.397 127.600,5.083 129.284,4.512 130.412 C 3.882 131.656,3.839 130.792,4.462 129.424 C 4.767 128.754,5.615 128.144,6.962 127.626 C 9.054 126.821,8.836 126.637,6.456 127.199 M391.200 127.926 C 391.200 128.105,391.822 128.549,392.583 128.911 C 393.402 129.302,394.292 130.188,394.765 131.085 C 395.205 131.918,395.573 132.456,395.582 132.280 C 395.592 132.104,395.325 131.429,394.990 130.780 C 394.654 130.131,394.519 129.594,394.690 129.587 C 394.860 129.579,394.586 129.228,394.080 128.807 C 393.575 128.385,392.900 128.140,392.580 128.263 C 392.261 128.385,392.000 128.286,392.000 128.043 C 392.000 127.799,391.820 127.600,391.600 127.600 C 391.380 127.600,391.200 127.747,391.200 127.926 M218.825 139.489 C 219.829 139.974,220.999 140.763,221.425 141.243 C 221.851 141.722,222.727 142.439,223.372 142.837 C 224.016 143.234,226.480 145.464,228.847 147.792 C 232.807 151.688,233.495 152.186,237.475 154.047 C 244.604 157.379,244.923 157.559,246.997 159.414 C 248.096 160.396,249.224 161.200,249.503 161.200 C 252.323 161.200,256.081 180.964,256.806 199.600 C 257.198 209.698,258.153 218.015,260.413 231.000 C 262.308 241.888,263.164 254.798,262.225 258.325 C 261.356 261.590,257.103 266.000,254.823 266.000 C 254.094 266.000,247.345 269.295,246.650 269.990 C 246.424 270.216,245.942 270.400,245.577 270.400 C 244.943 270.400,240.792 274.423,237.947 277.796 C 237.206 278.674,236.309 279.718,235.953 280.115 C 235.597 280.512,234.971 281.504,234.563 282.319 C 234.154 283.133,232.870 285.268,231.710 287.062 C 230.549 288.856,229.596 290.566,229.591 290.862 C 229.586 291.158,229.271 291.763,228.891 292.207 C 225.937 295.658,223.833 295.977,204.200 295.953 C 180.166 295.922,179.797 295.822,175.805 288.200 C 174.768 286.220,173.613 284.240,173.240 283.800 C 172.866 283.360,171.865 281.924,171.015 280.608 C 166.867 274.188,159.146 268.277,151.712 265.831 C 149.014 264.943,146.285 262.234,144.688 258.858 C 143.214 255.743,143.303 252.518,145.168 241.471 C 146.371 234.340,146.891 230.489,148.608 216.000 C 150.021 204.068,150.434 199.954,152.001 182.200 C 152.903 171.979,153.296 168.648,153.739 167.446 C 154.525 165.321,156.890 161.200,157.325 161.200 C 157.552 161.200,158.757 160.313,160.003 159.230 C 161.473 157.951,163.591 156.690,166.034 155.638 C 172.678 152.779,173.638 152.146,178.244 147.593 C 180.688 145.177,182.872 143.200,183.098 143.200 C 183.323 143.200,183.802 142.751,184.161 142.203 C 184.756 141.295,187.816 139.412,189.800 138.733 C 192.110 137.943,216.964 138.591,218.825 139.489 M2.914 143.000 C 2.917 144.100,2.995 144.503,3.087 143.895 C 3.179 143.286,3.177 142.386,3.082 141.895 C 2.987 141.403,2.911 141.900,2.914 143.000 M0.000 150.800 C 0.000 151.448,0.267 151.600,1.400 151.600 C 2.533 151.600,2.800 151.448,2.800 150.800 C 2.800 150.152,2.533 150.000,1.400 150.000 C 0.267 150.000,0.000 150.152,0.000 150.800 M397.905 150.283 C 398.402 150.379,399.122 150.375,399.505 150.275 C 399.887 150.175,399.480 150.096,398.600 150.101 C 397.720 150.105,397.407 150.187,397.905 150.283 M0.705 152.283 C 1.202 152.379,1.922 152.375,2.305 152.275 C 2.687 152.175,2.280 152.096,1.400 152.101 C 0.520 152.105,0.207 152.187,0.705 152.283 M-0.000 153.134 C -0.000 153.344,0.722 153.585,1.604 153.669 C 2.585 153.762,3.155 153.662,3.073 153.411 C 2.901 152.886,-0.000 152.624,-0.000 153.134 M195.961 168.222 C 191.475 169.034,185.704 171.018,183.413 172.535 C 182.306 173.269,180.161 174.459,178.647 175.180 C 175.968 176.456,166.001 185.755,166.000 186.980 C 165.999 187.211,165.557 187.914,165.017 188.542 C 164.476 189.171,163.823 190.341,163.565 191.142 C 163.307 191.944,162.963 192.780,162.800 193.000 C 162.637 193.220,161.756 195.624,160.840 198.341 C 158.025 206.703,158.302 216.136,161.613 224.600 C 161.785 225.040,162.227 226.210,162.595 227.200 C 165.291 234.444,176.891 245.674,183.904 247.828 C 185.827 248.419,188.390 249.351,189.600 249.900 C 194.808 252.260,195.716 252.428,203.286 252.430 C 210.671 252.431,213.512 251.985,216.200 250.404 C 216.860 250.016,218.930 249.194,220.800 248.579 C 225.214 247.126,227.929 245.778,229.320 244.350 C 229.936 243.718,230.612 243.200,230.822 243.200 C 231.437 243.200,241.085 233.383,241.768 232.062 C 248.793 218.477,249.805 205.838,244.706 195.362 C 243.946 193.801,243.213 191.966,243.077 191.284 C 242.321 187.505,230.326 174.800,227.514 174.800 C 226.628 174.800,225.353 174.172,224.355 173.246 C 219.839 169.050,205.449 166.504,195.961 168.222 M212.600 185.180 C 213.920 185.800,215.540 186.781,216.200 187.360 C 216.860 187.939,218.035 188.586,218.811 188.798 C 220.730 189.321,222.648 190.805,223.898 192.733 C 224.471 193.617,225.328 194.547,225.802 194.801 C 227.817 195.880,229.000 201.304,227.970 204.743 C 227.143 207.503,226.672 207.468,225.587 204.565 C 223.191 198.158,213.172 195.669,202.200 198.757 C 198.091 199.913,197.371 199.994,191.314 199.982 C 183.260 199.966,182.286 200.319,180.537 203.891 L 179.406 206.200 179.037 204.459 C 178.282 200.890,179.230 196.731,181.206 194.948 C 182.150 194.097,183.150 192.856,183.428 192.192 C 184.047 190.714,184.965 189.898,186.800 189.196 C 187.570 188.901,188.650 188.353,189.200 187.977 C 196.099 183.260,205.992 182.077,212.600 185.180 M227.606 213.900 C 229.471 218.869,228.734 225.357,226.126 226.923 C 225.830 227.101,225.275 227.564,224.894 227.952 C 224.512 228.340,223.570 229.078,222.800 229.592 C 222.030 230.106,220.860 231.006,220.200 231.591 C 216.434 234.930,204.621 236.699,197.200 235.034 C 195.550 234.663,193.390 234.222,192.400 234.053 C 191.410 233.884,190.141 233.488,189.580 233.173 C 179.167 227.326,176.362 222.282,178.920 214.000 L 179.475 212.200 179.964 213.939 C 180.610 216.240,182.370 218.103,185.139 219.416 C 187.792 220.675,187.958 220.767,189.351 221.750 C 192.060 223.663,200.193 223.057,202.580 220.765 C 202.789 220.564,203.380 220.400,203.893 220.400 C 204.407 220.400,205.683 219.966,206.729 219.436 C 208.895 218.338,213.322 217.998,218.247 218.551 C 222.668 219.047,225.626 217.078,226.242 213.229 C 226.573 211.157,226.577 211.159,227.606 213.900 M-0.000 246.376 L 0.000 250.000 1.536 250.000 L 3.071 250.000 3.036 246.500 L 3.000 243.000 1.500 242.876 L -0.000 242.752 -0.000 246.376 M2.914 257.000 C 2.917 258.100,2.995 258.503,3.087 257.895 C 3.179 257.286,3.177 256.386,3.082 255.895 C 2.987 255.403,2.911 255.900,2.914 257.000 M3.036 263.542 C 2.673 264.129,3.283 267.996,3.697 267.740 C 3.931 267.595,3.977 267.841,3.813 268.359 C 3.058 270.739,4.573 272.652,7.391 272.874 L 8.981 273.000 8.916 270.400 C 8.879 268.970,8.838 267.654,8.825 267.476 C 8.811 267.298,8.620 267.264,8.400 267.400 C 8.180 267.536,8.000 267.446,8.000 267.200 C 8.000 266.954,7.810 266.870,7.577 267.014 C 7.345 267.158,6.679 267.156,6.098 267.010 C 5.267 266.802,5.165 266.667,5.621 266.379 C 6.100 266.076,6.079 266.011,5.500 266.006 C 5.115 266.003,4.440 265.640,4.000 265.200 C 3.193 264.393,2.917 263.778,3.533 264.159 C 3.717 264.272,3.867 264.103,3.867 263.782 C 3.867 263.144,3.371 263.000,3.036 263.542 M394.742 268.801 C 394.306 269.824,393.571 270.614,392.543 271.168 C 391.247 271.866,391.179 271.959,392.116 271.752 C 392.897 271.579,393.197 271.655,393.116 272.003 C 393.052 272.276,393.230 272.554,393.510 272.620 C 393.791 272.686,393.836 272.649,393.611 272.537 C 393.387 272.426,393.914 271.740,394.782 271.015 C 395.651 270.289,396.260 269.594,396.136 269.470 C 396.012 269.346,395.465 269.774,394.920 270.422 C 394.375 271.070,393.749 271.600,393.529 271.600 C 393.309 271.600,393.582 271.061,394.137 270.402 C 394.691 269.743,395.264 268.830,395.409 268.372 C 395.870 266.918,395.424 267.205,394.742 268.801 M392.600 269.600 C 392.202 270.040,392.078 270.400,392.324 270.400 C 392.570 270.400,392.965 270.040,393.200 269.600 C 393.435 269.160,393.560 268.800,393.476 268.800 C 393.392 268.800,392.998 269.160,392.600 269.600 M8.950 280.050 C 9.088 280.738,9.200 281.560,9.200 281.877 C 9.200 282.271,9.485 282.387,10.100 282.242 C 10.699 282.101,10.630 282.185,9.893 282.495 C 8.814 282.948,8.587 283.921,9.618 283.677 C 10.012 283.584,10.000 283.721,9.568 284.254 C 9.205 284.701,9.181 284.845,9.500 284.653 C 9.775 284.488,10.000 284.500,10.000 284.679 C 10.000 284.859,11.080 285.058,12.400 285.122 C 14.677 285.232,14.799 285.191,14.772 284.319 C 14.745 283.448,14.726 283.442,14.395 284.200 C 14.056 284.979,14.040 284.977,13.779 284.108 C 13.553 283.355,13.284 283.241,12.055 283.373 C 11.255 283.460,10.816 283.444,11.080 283.339 C 11.410 283.207,11.449 282.855,11.206 282.214 C 11.011 281.702,10.975 281.145,11.126 280.977 C 11.276 280.810,11.076 280.789,10.679 280.932 C 10.279 281.075,10.060 281.027,10.186 280.823 C 10.311 280.621,10.238 280.347,10.024 280.215 C 9.810 280.083,9.736 279.710,9.860 279.387 C 10.005 279.010,9.838 278.800,9.393 278.800 C 8.830 278.800,8.747 279.035,8.950 280.050 M152.887 283.677 C 154.159 284.796,155.200 285.919,155.200 286.172 C 155.200 286.424,155.549 287.316,155.976 288.154 C 156.725 289.622,156.938 290.596,156.844 292.116 C 156.800 292.834,151.714 295.593,150.411 295.606 C 149.508 295.614,144.269 293.878,143.773 293.406 C 142.773 292.454,142.069 290.869,141.815 289.000 C 141.665 287.900,141.450 286.611,141.337 286.135 C 141.211 285.606,141.416 284.981,141.865 284.528 C 142.269 284.120,142.914 283.302,143.298 282.710 C 143.930 281.736,149.318 280.832,150.387 281.521 C 150.490 281.587,151.615 282.557,152.887 283.677 M263.647 283.300 L 265.446 285.400 265.010 288.502 C 264.425 292.657,263.161 293.973,258.818 294.946 L 255.837 295.615 252.937 294.182 C 249.388 292.428,249.155 291.876,250.772 289.049 C 251.447 287.868,252.000 286.592,252.000 286.212 C 252.000 285.509,253.803 283.613,255.582 282.445 C 256.122 282.090,257.562 281.691,258.782 281.559 C 260.002 281.426,261.191 281.291,261.424 281.259 C 261.657 281.226,262.657 282.145,263.647 283.300 M14.953 292.240 C 14.939 293.648,15.100 294.800,15.312 294.800 C 15.524 294.800,15.468 295.078,15.186 295.417 C 14.359 296.413,15.356 296.997,17.920 297.020 C 20.197 297.041,20.200 297.043,20.460 298.420 C 20.666 299.515,20.714 299.332,20.693 297.538 C 20.671 295.701,20.554 295.320,20.067 295.506 C 19.678 295.656,19.570 295.572,19.758 295.268 C 20.085 294.739,19.941 294.694,19.035 295.042 C 18.688 295.175,18.504 295.445,18.626 295.642 C 18.748 295.839,18.702 296.014,18.524 296.031 C 18.346 296.047,17.885 296.122,17.500 296.195 C 17.115 296.269,16.800 296.146,16.800 295.922 C 16.800 295.698,17.050 295.610,17.355 295.727 C 17.744 295.877,17.849 295.710,17.708 295.170 C 17.597 294.747,17.213 294.397,16.853 294.394 C 16.293 294.389,16.284 294.334,16.791 294.014 C 17.198 293.757,17.621 293.852,18.149 294.320 C 18.719 294.824,18.962 294.870,19.093 294.498 C 19.189 294.221,19.461 294.114,19.696 294.259 C 19.955 294.419,20.006 294.334,19.826 294.042 C 19.617 293.703,19.380 293.685,19.025 293.979 C 18.660 294.282,18.325 294.180,17.807 293.608 C 17.414 293.174,16.956 292.904,16.788 293.007 C 16.469 293.205,15.822 292.033,15.944 291.478 C 15.983 291.301,15.782 290.824,15.498 290.418 C 15.051 289.781,14.977 290.029,14.953 292.240 M20.909 305.067 C 20.909 308.496,21.068 308.668,24.300 308.720 C 26.329 308.754,26.399 308.718,26.368 307.677 C 26.351 307.085,26.246 306.825,26.135 307.100 C 25.920 307.634,25.168 307.803,25.247 307.300 C 25.366 306.546,25.143 306.402,24.440 306.779 C 23.860 307.089,23.624 307.040,23.445 306.572 C 23.305 306.209,23.377 306.062,23.621 306.213 C 23.888 306.378,23.936 306.071,23.757 305.334 L 23.481 304.200 24.364 305.200 L 25.247 306.200 24.622 305.168 C 24.279 304.601,24.096 304.038,24.216 303.917 C 24.336 303.797,24.150 303.589,23.801 303.456 C 23.423 303.311,23.193 303.412,23.231 303.706 C 23.393 304.964,23.185 305.185,22.485 304.500 C 21.858 303.887,21.846 303.766,22.385 303.528 C 22.868 303.315,22.828 303.249,22.200 303.222 C 21.605 303.197,21.537 303.101,21.934 302.849 C 22.345 302.589,22.288 302.464,21.688 302.307 C 20.968 302.119,20.909 302.327,20.909 305.067 M377.997 307.603 C 377.488 308.044,377.200 308.534,377.358 308.691 C 377.515 308.848,377.789 308.742,377.966 308.454 C 378.144 308.167,378.404 307.947,378.545 307.966 C 378.685 307.985,378.785 307.885,378.766 307.745 C 378.747 307.604,378.972 307.337,379.266 307.151 C 379.565 306.961,379.607 306.810,379.361 306.806 C 379.120 306.803,378.506 307.161,377.997 307.603 M26.881 312.903 C 26.622 313.214,26.586 313.653,26.790 313.984 C 27.215 314.671,28.670 314.934,29.010 314.385 C 29.147 314.162,29.036 314.030,28.762 314.090 C 28.489 314.151,28.052 313.790,27.791 313.289 C 27.412 312.563,27.227 312.485,26.881 312.903 M32.491 320.830 C 32.413 321.935,32.604 322.604,33.154 323.154 C 33.912 323.912,33.912 323.930,33.163 324.126 C 32.743 324.235,32.400 324.533,32.400 324.786 C 32.400 325.040,32.611 325.117,32.868 324.958 C 33.185 324.762,33.251 324.889,33.073 325.355 C 32.916 325.763,32.970 325.942,33.205 325.797 C 33.422 325.663,33.600 325.718,33.600 325.920 C 33.600 326.122,34.672 326.302,35.982 326.320 L 38.363 326.354 38.282 323.477 C 38.224 321.460,38.051 320.612,37.700 320.640 C 36.185 320.761,36.082 320.836,36.249 321.700 C 36.421 322.593,36.420 322.593,36.039 321.741 C 35.616 320.792,34.800 320.132,34.800 320.739 C 34.800 320.951,34.440 321.031,34.000 320.916 C 33.560 320.801,33.200 320.468,33.200 320.177 C 33.200 318.875,32.589 319.438,32.491 320.830 M37.561 321.753 C 37.915 322.180,37.881 322.360,37.410 322.541 C 36.991 322.702,36.800 322.529,36.800 321.987 C 36.800 321.055,36.945 321.010,37.561 321.753 M37.270 324.764 C 37.124 325.168,36.973 325.079,36.742 324.454 C 36.481 323.748,36.205 323.627,35.309 323.822 C 34.544 323.989,34.369 323.946,34.743 323.682 C 35.095 323.434,35.185 322.982,34.998 322.394 C 34.752 321.619,34.910 321.684,36.093 322.844 C 36.856 323.593,37.383 324.453,37.270 324.764 M366.656 324.706 C 366.989 324.921,366.970 325.132,366.585 325.488 C 366.171 325.873,366.017 325.873,365.861 325.488 C 365.748 325.210,365.650 325.302,365.632 325.700 C 365.591 326.603,366.103 326.591,366.938 325.669 C 367.785 324.733,367.775 324.398,366.900 324.406 C 366.454 324.410,366.365 324.519,366.656 324.706 M38.767 330.033 C 38.562 331.056,38.596 331.926,38.834 331.779 C 38.998 331.678,39.229 331.821,39.348 332.098 C 39.467 332.374,39.519 332.112,39.464 331.515 C 39.379 330.595,38.870 329.515,38.767 330.033 M40.079 331.638 C 40.182 331.947,40.941 332.240,41.811 332.307 C 43.483 332.435,43.620 332.139,41.993 331.916 C 41.447 331.841,40.752 331.624,40.448 331.434 C 40.063 331.193,39.952 331.255,40.079 331.638 M50.105 342.500 C 50.195 343.353,50.682 343.980,51.265 343.994 C 51.411 343.997,51.327 343.460,51.078 342.800 C 50.545 341.389,49.968 341.212,50.105 342.500 M343.175 349.246 C 342.823 349.905,342.834 350.055,343.226 349.925 C 343.503 349.832,343.775 349.451,343.830 349.078 C 343.964 348.162,343.722 348.225,343.175 349.246 M56.400 349.515 C 56.400 349.686,56.881 349.865,57.468 349.914 C 58.055 349.962,58.410 349.877,58.257 349.724 C 57.850 349.316,56.400 349.153,56.400 349.515 M61.600 352.084 C 61.600 352.424,61.915 352.949,62.300 353.251 C 62.947 353.758,62.954 353.742,62.400 353.039 C 62.070 352.620,61.860 352.200,61.933 352.105 C 62.007 352.011,61.962 351.828,61.833 351.700 C 61.705 351.572,61.600 351.745,61.600 352.084 M67.606 357.476 C 67.603 357.958,67.780 358.464,68.000 358.600 C 68.509 358.915,68.509 357.988,68.000 357.200 C 67.685 356.712,67.611 356.764,67.606 357.476 M67.862 359.783 C 67.388 361.018,67.977 361.437,70.228 361.468 C 72.666 361.502,72.924 361.124,70.515 361.047 C 69.308 361.008,69.001 360.843,69.001 360.234 C 69.000 359.277,68.180 358.953,67.862 359.783 M73.747 362.667 C 73.543 363.481,73.681 363.899,74.330 364.423 C 75.162 365.098,75.164 365.116,74.390 365.319 C 73.955 365.432,73.600 365.728,73.600 365.977 C 73.600 366.297,73.822 366.309,74.364 366.019 C 75.024 365.666,75.114 365.739,75.026 366.547 C 74.928 367.438,75.047 367.486,77.461 367.527 C 80.212 367.574,80.449 367.468,79.149 366.773 C 78.485 366.418,78.223 366.436,77.955 366.859 C 77.705 367.253,77.611 367.156,77.606 366.500 C 77.600 365.558,76.980 365.260,76.710 366.070 C 76.518 366.645,74.613 362.800,74.743 362.100 C 74.927 361.104,74.008 361.628,73.747 362.667 M325.456 365.906 C 325.789 366.121,325.770 366.332,325.385 366.688 C 324.971 367.073,324.817 367.073,324.661 366.688 C 324.548 366.410,324.450 366.502,324.432 366.900 C 324.392 367.769,324.945 367.798,325.771 366.971 C 326.597 366.146,326.569 365.599,325.700 365.606 C 325.254 365.610,325.165 365.719,325.456 365.906 M85.450 371.919 C 85.107 372.473,85.898 373.336,86.867 373.465 C 87.677 373.573,87.708 373.535,87.100 373.175 C 86.715 372.947,86.400 372.499,86.400 372.180 C 86.400 371.560,85.777 371.389,85.450 371.919 M313.827 372.770 C 313.165 373.501,313.165 373.534,313.832 373.436 C 314.218 373.380,314.578 373.033,314.631 372.667 C 314.756 371.820,314.678 371.830,313.827 372.770 M91.200 374.413 C 91.200 374.846,91.560 375.560,92.000 376.000 C 92.593 376.593,92.651 376.800,92.224 376.800 C 91.431 376.800,90.989 377.622,91.583 377.989 C 91.850 378.154,92.098 378.449,92.134 378.645 C 92.170 378.840,92.425 378.975,92.700 378.944 C 92.975 378.914,93.200 379.010,93.200 379.157 C 93.200 379.305,94.120 379.466,95.244 379.515 C 96.881 379.586,97.243 379.489,97.066 379.028 C 96.944 378.711,97.060 378.373,97.322 378.278 C 97.585 378.182,97.245 378.142,96.566 378.188 C 95.887 378.234,95.147 378.385,94.922 378.525 C 94.393 378.852,94.000 378.450,94.000 377.582 C 94.000 377.206,93.732 376.676,93.404 376.404 C 93.077 376.132,92.900 375.762,93.011 375.582 C 93.122 375.402,93.002 375.125,92.745 374.966 C 92.433 374.773,92.384 374.851,92.600 375.200 C 92.810 375.539,92.767 375.627,92.479 375.449 C 92.235 375.298,92.127 374.933,92.240 374.639 C 92.353 374.344,92.166 373.996,91.823 373.864 C 91.389 373.698,91.200 373.864,91.200 374.413 M307.040 378.640 C 306.898 379.011,306.875 379.409,306.991 379.524 C 307.106 379.639,307.200 379.523,307.200 379.267 C 307.200 379.010,307.335 378.845,307.500 378.900 C 307.665 378.955,307.859 378.825,307.930 378.610 C 308.162 377.915,307.307 377.944,307.040 378.640 M102.999 380.001 C 102.801 380.321,103.041 382.820,103.430 384.500 C 103.469 384.665,103.528 384.935,103.563 385.100 C 103.597 385.265,103.914 385.040,104.267 384.600 C 104.787 383.950,104.862 383.931,104.666 384.500 C 104.479 385.043,104.647 385.200,105.413 385.200 C 106.040 385.200,106.400 384.973,106.400 384.576 C 106.400 384.233,106.220 384.064,106.000 384.200 C 105.780 384.336,105.600 384.278,105.600 384.070 C 105.600 383.863,105.240 383.599,104.800 383.484 C 104.321 383.359,104.000 382.938,104.000 382.437 C 104.000 381.977,103.820 381.600,103.600 381.600 C 103.380 381.600,103.200 381.409,103.200 381.176 C 103.200 380.943,103.363 380.854,103.563 380.977 C 103.762 381.100,103.831 380.841,103.716 380.401 C 103.480 379.497,103.354 379.427,102.999 380.001 M106.933 384.618 C 106.933 384.972,107.325 385.200,107.933 385.200 C 108.764 385.200,108.893 384.613,108.067 384.594 C 107.920 384.591,107.605 384.463,107.367 384.311 C 107.127 384.159,106.933 384.296,106.933 384.618 M114.800 387.600 C 114.800 388.040,114.986 388.400,115.214 388.400 C 115.495 388.400,115.490 388.658,115.200 389.200 C 114.893 389.773,114.896 390.000,115.210 390.000 C 115.450 390.000,115.519 390.208,115.362 390.462 C 115.184 390.750,115.252 390.815,115.545 390.634 C 115.802 390.475,115.892 390.149,115.745 389.911 C 115.585 389.651,115.663 389.591,115.938 389.762 C 116.192 389.919,116.400 390.268,116.400 390.539 C 116.400 390.835,117.036 391.055,118.000 391.094 C 119.265 391.144,119.599 391.016,119.594 390.479 C 119.589 389.937,119.517 389.912,119.239 390.351 C 119.016 390.702,118.691 390.777,118.345 390.557 C 117.804 390.215,117.592 390.146,116.776 390.050 C 116.543 390.023,116.456 389.832,116.583 389.628 C 116.709 389.423,116.627 389.140,116.400 389.000 C 116.173 388.860,116.091 388.577,116.217 388.372 C 116.344 388.168,116.237 388.000,115.981 388.000 C 115.724 388.000,115.618 387.730,115.745 387.400 C 115.885 387.035,115.745 386.800,115.387 386.800 C 115.064 386.800,114.800 387.160,114.800 387.600 M284.197 389.530 C 284.305 389.638,284.189 389.972,283.940 390.273 C 283.690 390.573,283.602 390.935,283.743 391.076 C 283.884 391.218,284.000 391.113,284.000 390.843 C 284.000 390.564,284.215 390.477,284.500 390.641 C 284.775 390.799,284.867 390.781,284.703 390.601 C 284.540 390.421,284.583 390.062,284.797 389.803 C 285.066 389.479,285.003 389.333,284.594 389.333 C 284.267 389.333,284.088 389.422,284.197 389.530 M127.054 392.600 C 127.485 395.529,128.106 396.033,131.890 396.529 C 132.379 396.594,132.904 396.771,133.056 396.923 C 133.436 397.302,135.200 397.274,135.200 396.889 C 135.200 396.718,134.840 396.270,134.400 395.893 C 133.960 395.516,133.600 394.936,133.600 394.604 C 133.600 394.272,133.440 394.000,133.244 394.000 C 133.049 394.000,132.897 393.775,132.907 393.500 C 132.991 391.239,132.946 391.200,130.200 391.200 C 128.001 391.200,127.596 391.308,127.572 391.900 C 127.548 392.502,127.493 392.488,127.181 391.800 C 126.927 391.238,126.889 391.477,127.054 392.600 M268.473 392.123 C 267.801 392.838,267.713 393.153,268.083 393.523 C 268.452 393.892,268.452 394.000,268.080 394.000 C 267.816 394.000,267.600 394.190,267.600 394.423 C 267.600 395.155,270.048 393.450,270.647 392.300 C 271.415 390.827,270.773 390.899,269.655 392.411 C 269.163 393.077,268.575 393.508,268.350 393.369 C 268.103 393.216,268.298 392.735,268.840 392.158 C 269.335 391.631,269.649 391.200,269.539 391.200 C 269.429 391.200,268.949 391.615,268.473 392.123 M271.070 392.621 C 270.604 393.600,269.865 394.282,268.696 394.812 C 267.193 395.495,267.122 395.583,268.069 395.591 C 268.657 395.596,269.737 395.119,270.469 394.531 L 271.800 393.462 270.751 394.571 C 270.174 395.181,269.107 395.802,268.381 395.950 C 267.654 396.099,266.988 396.486,266.899 396.810 C 266.803 397.164,266.871 397.240,267.070 397.000 C 267.451 396.538,268.221 396.319,269.500 396.308 C 269.995 396.304,270.400 396.148,270.400 395.963 C 270.400 395.777,270.657 395.724,270.970 395.844 C 271.692 396.121,272.975 394.233,272.647 393.378 C 272.514 393.032,272.241 392.851,272.040 392.975 C 271.836 393.102,271.783 392.804,271.921 392.301 C 272.123 391.562,272.194 391.527,272.314 392.105 C 272.482 392.912,273.200 392.646,273.200 391.776 C 273.200 390.623,271.749 391.199,271.070 392.621 M129.134 394.917 C 129.696 395.566,129.696 395.612,129.132 395.395 C 128.789 395.264,128.304 394.707,128.054 394.159 C 127.475 392.887,127.484 392.348,128.068 393.400 C 128.312 393.840,128.792 394.523,129.134 394.917 M272.018 394.766 C 271.773 395.225,271.390 395.600,271.167 395.600 C 270.945 395.600,271.086 395.168,271.481 394.639 C 272.331 393.503,272.653 393.579,272.018 394.766 M150.000 398.600 C 150.000 399.733,150.152 400.000,150.800 400.000 C 151.448 400.000,151.600 399.733,151.600 398.600 C 151.600 397.467,151.448 397.200,150.800 397.200 C 150.152 397.200,150.000 397.467,150.000 398.600 " stroke="none" fill="#FFFFFF" fill-rule="evenodd"></path><path id="path1" d="M150.400 1.400 L 150.400 2.800 146.700 2.852 C 132.381 3.055,132.600 2.997,132.600 6.600 C 132.600 8.430,132.515 8.612,131.600 8.738 L 130.600 8.876 131.570 7.838 C 132.103 7.267,132.341 6.800,132.099 6.800 C 131.856 6.800,131.304 7.250,130.871 7.800 C 129.961 8.957,128.993 9.149,129.358 8.100 C 129.590 7.433,129.576 7.433,129.057 8.100 C 128.258 9.125,127.621 8.974,127.935 7.834 C 128.373 6.239,130.189 4.529,131.756 4.235 C 132.550 4.086,133.200 3.792,133.200 3.582 C 133.200 3.094,133.348 3.069,130.823 3.992 C 128.449 4.859,128.214 5.095,127.535 7.300 L 127.073 8.800 123.837 8.866 C 122.057 8.902,119.745 8.885,118.700 8.829 C 117.093 8.742,116.795 8.840,116.768 9.463 C 116.750 9.884,116.650 9.985,116.535 9.700 C 116.251 8.996,115.332 9.078,115.043 9.833 C 114.587 11.022,114.765 12.099,115.380 11.863 C 115.767 11.715,115.885 11.833,115.737 12.220 C 115.614 12.539,115.354 12.800,115.157 12.800 C 114.961 12.800,114.800 13.250,114.800 13.800 L 114.800 14.800 110.300 14.862 C 107.825 14.896,105.420 14.893,104.954 14.856 C 104.489 14.818,103.859 15.094,103.554 15.470 C 103.184 15.926,103.166 16.054,103.500 15.853 C 103.775 15.688,104.000 15.733,104.000 15.953 C 104.000 16.173,103.828 16.459,103.618 16.589 C 103.408 16.719,103.284 17.439,103.343 18.190 C 103.407 18.995,103.291 19.457,103.062 19.315 C 102.840 19.177,102.761 19.409,102.879 19.858 C 103.068 20.580,102.838 20.649,99.891 20.749 C 98.136 20.809,96.262 21.024,95.727 21.228 C 95.090 21.470,94.839 21.460,95.001 21.199 C 95.329 20.667,94.937 20.696,93.874 21.281 C 92.754 21.897,91.931 22.036,92.226 21.558 C 92.352 21.354,92.623 21.291,92.828 21.417 C 93.032 21.544,93.200 21.457,93.200 21.224 C 93.200 20.991,93.065 20.803,92.900 20.806 C 92.063 20.823,91.516 21.658,91.305 23.242 C 91.092 24.842,91.130 24.951,91.730 24.455 C 92.331 23.959,92.351 24.021,91.956 25.155 C 91.505 26.447,90.682 26.683,87.500 26.435 C 86.895 26.387,86.400 26.551,86.400 26.798 C 86.400 27.045,86.192 27.119,85.938 26.962 C 85.663 26.791,85.585 26.851,85.745 27.111 C 85.892 27.349,85.818 27.665,85.580 27.812 C 85.342 27.960,85.185 28.647,85.231 29.340 C 85.443 32.486,85.533 32.400,82.033 32.400 C 80.292 32.400,78.807 32.556,78.733 32.747 C 78.660 32.938,78.151 33.234,77.603 33.405 C 76.710 33.683,76.663 33.647,77.152 33.058 C 77.635 32.476,77.578 32.400,76.662 32.400 C 75.905 32.400,75.687 32.562,75.855 33.000 C 76.132 33.720,75.357 33.817,75.058 33.100 C 74.747 32.351,73.600 33.939,73.600 35.119 C 73.600 35.814,73.769 36.021,74.200 35.855 C 74.972 35.559,74.972 36.170,74.200 36.943 C 73.870 37.273,73.600 37.736,73.600 37.971 C 73.600 38.220,72.749 38.400,71.576 38.400 C 70.064 38.400,69.629 38.526,69.853 38.900 C 70.048 39.224,69.910 39.202,69.460 38.837 C 68.890 38.375,68.680 38.367,68.283 38.796 C 67.896 39.214,67.943 39.267,68.521 39.063 C 68.949 38.912,69.142 38.970,68.997 39.205 C 68.863 39.422,68.470 39.600,68.124 39.600 C 67.637 39.600,67.543 39.896,67.709 40.914 C 68.174 43.785,67.762 44.381,65.495 44.113 C 64.176 43.957,63.562 44.014,63.725 44.279 C 63.879 44.528,63.593 44.611,62.988 44.496 C 62.096 44.325,62.000 44.438,61.996 45.653 C 61.983 49.370,61.654 50.000,59.724 50.000 C 58.750 50.000,58.045 50.150,58.159 50.333 C 58.272 50.517,58.111 50.667,57.800 50.667 C 57.489 50.667,57.328 50.517,57.441 50.333 C 57.555 50.150,57.502 50.001,57.324 50.003 C 56.703 50.009,56.000 52.174,56.000 54.080 L 56.000 56.000 54.080 56.000 C 52.174 56.000,50.009 56.703,50.003 57.324 C 50.001 57.502,50.150 57.555,50.333 57.441 C 50.517 57.328,50.667 57.489,50.667 57.800 C 50.667 58.111,50.517 58.272,50.333 58.159 C 50.150 58.045,50.000 58.753,50.000 59.731 C 50.000 61.705,49.357 62.055,45.850 61.990 C 44.403 61.964,44.312 62.029,44.492 62.969 C 44.610 63.587,44.528 63.879,44.280 63.726 C 44.014 63.561,43.966 64.247,44.140 65.726 C 44.365 67.641,44.314 67.942,43.797 67.744 C 43.463 67.615,42.938 67.719,42.631 67.975 C 42.248 68.292,41.989 68.307,41.812 68.019 C 41.415 67.378,39.600 67.507,39.600 68.176 C 39.600 68.493,39.389 68.883,39.132 69.042 C 38.805 69.244,38.752 69.100,38.956 68.566 C 39.184 67.966,39.142 67.904,38.761 68.283 C 38.378 68.662,38.395 68.915,38.837 69.460 C 39.211 69.921,39.231 70.052,38.896 69.851 C 38.515 69.622,38.409 70.013,38.464 71.451 C 38.507 72.607,38.352 73.416,38.068 73.511 C 37.811 73.596,37.600 73.842,37.600 74.057 C 37.600 74.272,37.780 74.336,38.000 74.200 C 38.220 74.064,38.400 74.132,38.400 74.352 C 38.400 74.571,37.905 74.717,37.300 74.675 C 36.604 74.628,36.237 74.784,36.300 75.100 C 36.355 75.375,36.220 75.600,36.000 75.600 C 35.780 75.600,35.600 75.426,35.600 75.214 C 35.600 75.002,35.193 75.227,34.695 75.714 C 34.129 76.268,33.942 76.715,34.195 76.907 C 34.450 77.101,34.354 77.360,33.937 77.606 C 33.528 77.848,33.355 78.305,33.484 78.799 C 33.630 79.356,33.497 79.600,33.047 79.600 C 32.513 79.600,32.400 80.088,32.400 82.400 C 32.400 85.498,32.691 85.230,29.200 85.351 C 28.313 85.382,27.837 85.583,27.900 85.900 C 27.955 86.175,27.640 86.400,27.200 86.400 C 26.667 86.400,26.400 86.667,26.400 87.200 C 26.400 87.640,26.586 88.000,26.814 88.000 C 27.100 88.000,27.100 88.240,26.814 88.774 C 26.586 89.199,26.400 90.201,26.400 91.001 C 26.400 92.278,26.302 92.423,25.590 92.197 C 25.063 92.029,24.818 92.107,24.890 92.420 C 24.950 92.684,24.775 92.983,24.500 93.083 C 24.225 93.184,24.000 93.032,24.000 92.744 C 24.000 92.457,23.720 92.622,23.377 93.111 C 23.035 93.600,22.517 94.000,22.226 94.000 C 21.936 94.000,21.451 94.305,21.149 94.677 C 20.836 95.062,20.803 95.232,21.072 95.070 C 21.332 94.914,21.658 94.970,21.796 95.193 C 21.934 95.417,21.850 95.600,21.610 95.600 C 21.295 95.600,21.293 95.826,21.603 96.406 C 21.924 97.006,21.913 97.184,21.559 97.106 C 21.251 97.037,21.029 97.772,20.928 99.200 C 20.658 103.029,20.575 103.317,19.651 103.659 C 18.989 103.904,18.836 103.862,19.057 103.495 C 19.221 103.221,19.024 103.268,18.615 103.600 C 17.774 104.283,17.621 104.277,17.151 103.534 C 16.920 103.170,16.810 103.152,16.806 103.476 C 16.803 103.738,16.980 104.064,17.200 104.200 C 17.420 104.336,17.600 104.625,17.600 104.842 C 17.600 105.060,17.169 104.914,16.641 104.519 C 16.114 104.123,15.788 103.620,15.918 103.400 C 16.048 103.180,15.849 103.247,15.477 103.549 C 15.105 103.851,14.813 104.391,14.828 104.749 C 14.851 105.281,14.909 105.265,15.147 104.661 C 15.420 103.967,15.472 103.964,16.006 104.607 C 16.507 105.210,16.469 105.377,15.687 106.010 C 14.745 106.773,14.398 108.689,15.300 108.147 C 15.682 107.918,15.678 107.997,15.286 108.481 C 15.003 108.830,14.800 109.270,14.833 109.458 C 15.237 111.707,14.730 114.800,13.957 114.800 C 13.381 114.800,13.186 114.985,13.340 115.387 C 13.464 115.710,13.393 116.081,13.183 116.211 C 12.972 116.341,12.800 116.235,12.800 115.975 C 12.800 115.622,12.647 115.629,12.200 116.000 C 11.719 116.399,11.466 116.389,10.923 115.949 C 10.349 115.483,10.297 115.484,10.579 115.952 C 10.810 116.336,10.742 116.442,10.356 116.302 C 10.050 116.191,9.858 115.853,9.929 115.550 C 10.029 115.119,9.951 115.105,9.565 115.484 C 9.176 115.866,9.275 116.132,10.034 116.747 L 10.997 117.527 9.898 117.317 C 8.870 117.120,8.803 117.193,8.846 118.453 C 8.875 119.297,8.965 119.501,9.085 119.000 C 9.191 118.560,9.460 118.020,9.684 117.800 C 9.958 117.530,10.001 117.693,9.818 118.300 C 9.633 118.913,9.714 119.204,10.073 119.212 C 10.393 119.220,10.316 119.390,9.878 119.644 C 9.307 119.976,9.255 120.184,9.627 120.632 C 10.002 121.085,9.960 121.200,9.421 121.200 C 8.856 121.200,8.754 121.582,8.804 123.500 C 8.838 124.765,8.851 126.073,8.833 126.406 C 8.814 126.756,7.983 127.302,6.868 127.699 C 5.566 128.161,4.783 128.720,4.468 129.411 C 3.840 130.788,3.879 131.663,4.512 130.412 C 5.083 129.284,7.397 127.600,8.376 127.600 C 8.957 127.600,9.246 132.088,8.700 132.633 C 8.562 132.771,6.429 133.243,5.700 133.296 C 5.425 133.317,5.200 133.462,5.200 133.620 C 5.200 133.778,4.822 134.006,4.360 134.126 C 3.897 134.247,3.638 134.538,3.783 134.773 C 3.928 135.008,3.857 135.200,3.624 135.200 C 3.391 135.200,3.200 135.391,3.200 135.624 C 3.200 135.857,3.425 135.933,3.700 135.794 C 3.975 135.655,3.868 135.811,3.463 136.141 C 2.820 136.666,2.743 137.241,2.859 140.671 C 2.932 142.832,2.949 146.175,2.896 148.100 L 2.800 151.600 1.300 151.657 L -0.200 151.714 1.400 152.000 L 3.000 152.286 1.400 152.400 L -0.200 152.514 1.369 152.757 C 3.486 153.085,3.687 153.868,1.604 153.669 L -0.000 153.516 0.000 198.134 L 0.000 242.752 1.500 242.876 L 3.000 243.000 2.917 253.281 C 2.850 261.545,2.935 263.523,3.350 263.364 C 3.634 263.255,3.867 263.435,3.867 263.765 C 3.867 264.095,3.717 264.272,3.533 264.159 C 2.917 263.778,3.193 264.393,4.000 265.200 C 4.440 265.640,5.115 266.003,5.500 266.006 C 6.079 266.011,6.100 266.076,5.621 266.379 C 5.165 266.667,5.267 266.802,6.098 267.010 C 6.679 267.156,7.345 267.158,7.577 267.014 C 7.810 266.870,8.000 266.954,8.000 267.200 C 8.000 267.446,8.180 267.536,8.400 267.400 C 8.893 267.095,8.887 267.026,8.883 273.500 C 8.880 277.958,8.975 278.800,9.482 278.800 C 9.848 278.800,9.997 279.031,9.860 279.387 C 9.736 279.710,9.810 280.083,10.024 280.215 C 10.238 280.347,10.311 280.621,10.186 280.823 C 10.060 281.027,10.279 281.075,10.679 280.932 C 11.076 280.789,11.276 280.810,11.126 280.977 C 10.975 281.145,11.011 281.702,11.206 282.214 C 11.449 282.855,11.410 283.207,11.080 283.339 C 10.816 283.444,11.255 283.460,12.055 283.373 C 13.284 283.241,13.553 283.355,13.779 284.108 C 14.040 284.977,14.056 284.979,14.395 284.200 C 14.638 283.643,14.771 284.374,14.833 286.600 C 14.947 290.701,14.945 290.684,15.369 291.072 C 15.578 291.263,15.592 291.166,15.402 290.838 C 15.180 290.455,15.227 290.369,15.549 290.568 C 15.809 290.729,15.988 291.072,15.948 291.330 C 15.838 292.028,16.438 293.224,16.788 293.007 C 16.956 292.904,17.414 293.174,17.807 293.608 C 18.325 294.180,18.660 294.282,19.025 293.979 C 19.380 293.685,19.617 293.703,19.826 294.042 C 20.006 294.334,19.955 294.419,19.696 294.259 C 19.461 294.114,19.189 294.221,19.093 294.498 C 18.962 294.870,18.719 294.824,18.149 294.320 C 17.621 293.852,17.198 293.757,16.791 294.014 C 16.284 294.334,16.293 294.389,16.853 294.394 C 17.213 294.397,17.597 294.747,17.708 295.170 C 17.849 295.710,17.744 295.877,17.355 295.727 C 17.050 295.610,16.800 295.698,16.800 295.922 C 16.800 296.146,17.115 296.269,17.500 296.195 C 17.885 296.122,18.346 296.047,18.524 296.031 C 18.702 296.014,18.748 295.839,18.626 295.642 C 18.504 295.445,18.688 295.175,19.035 295.042 C 19.941 294.694,20.085 294.739,19.758 295.268 C 19.569 295.574,19.680 295.655,20.079 295.502 C 20.590 295.306,20.705 295.796,20.789 298.534 C 20.845 300.330,20.900 302.000,20.912 302.245 C 20.924 302.490,21.308 302.609,21.767 302.510 C 22.448 302.363,22.491 302.409,22.000 302.759 C 21.492 303.122,21.522 303.193,22.200 303.222 C 22.828 303.249,22.868 303.315,22.385 303.528 C 21.846 303.766,21.858 303.887,22.485 304.500 C 23.185 305.185,23.393 304.964,23.231 303.706 C 23.193 303.412,23.423 303.311,23.801 303.456 C 24.150 303.589,24.336 303.797,24.216 303.917 C 24.096 304.038,24.279 304.601,24.622 305.168 L 25.247 306.200 24.364 305.200 L 23.481 304.200 23.757 305.334 C 23.936 306.071,23.888 306.378,23.621 306.213 C 23.377 306.062,23.305 306.209,23.445 306.572 C 23.624 307.040,23.860 307.089,24.440 306.779 C 25.143 306.402,25.366 306.546,25.247 307.300 C 25.168 307.803,25.920 307.634,26.135 307.100 C 26.246 306.825,26.351 307.467,26.368 308.526 C 26.386 309.586,26.586 310.801,26.814 311.226 C 27.100 311.760,27.100 312.000,26.814 312.000 C 26.586 312.000,26.400 312.292,26.400 312.649 C 26.400 313.180,26.509 313.208,27.000 312.800 C 27.487 312.396,27.600 312.413,27.600 312.889 C 27.600 313.766,29.073 314.934,29.817 314.649 C 31.461 314.018,32.400 314.787,32.400 316.764 C 32.400 318.950,33.105 320.682,34.100 320.942 C 34.485 321.043,34.800 320.951,34.800 320.739 C 34.800 320.132,35.616 320.792,36.039 321.741 C 36.420 322.593,36.421 322.593,36.249 321.700 C 36.082 320.836,36.185 320.761,37.700 320.640 C 38.203 320.600,38.297 321.532,38.418 327.688 C 38.452 329.429,38.628 330.345,38.917 330.288 C 39.342 330.204,39.436 330.427,39.550 331.800 C 39.578 332.130,39.774 332.400,39.987 332.400 C 40.201 332.400,40.257 332.085,40.113 331.700 C 39.877 331.072,39.924 331.060,40.567 331.584 C 40.962 331.905,41.989 332.145,42.851 332.117 L 44.419 332.067 44.165 333.982 C 44.006 335.179,44.071 335.997,44.338 336.162 C 44.573 336.307,44.657 336.708,44.524 337.053 C 44.392 337.398,44.535 337.840,44.842 338.034 C 45.649 338.545,46.095 338.479,45.747 337.900 C 45.529 337.537,45.626 337.545,46.099 337.929 C 46.458 338.220,47.078 338.425,47.476 338.383 C 49.894 338.132,50.247 338.331,50.071 339.846 C 49.978 340.641,50.063 341.406,50.259 341.546 C 50.456 341.686,50.820 342.266,51.070 342.835 C 51.484 343.779,51.722 343.867,53.762 343.835 L 56.000 343.800 56.000 346.067 C 56.000 347.506,56.183 348.407,56.500 348.535 C 56.900 348.696,56.900 348.743,56.500 348.768 C 56.225 348.786,56.000 348.974,56.000 349.187 C 56.000 349.401,56.300 349.460,56.666 349.319 C 57.165 349.128,57.246 349.206,56.989 349.632 C 56.703 350.107,56.751 350.115,57.288 349.681 C 57.716 349.334,58.014 349.300,58.186 349.578 C 58.328 349.807,59.154 349.939,60.022 349.870 C 61.402 349.761,61.600 349.852,61.600 350.593 C 61.600 351.059,61.816 351.656,62.080 351.920 C 62.344 352.184,62.412 352.400,62.231 352.400 C 62.050 352.400,62.149 352.705,62.451 353.077 C 62.753 353.449,62.794 353.630,62.542 353.479 C 61.962 353.132,62.013 355.271,62.595 355.694 C 63.237 356.160,63.676 356.047,63.347 355.500 C 63.145 355.163,63.269 355.180,63.727 355.552 C 64.163 355.906,64.909 356.022,65.806 355.877 C 67.049 355.675,67.272 355.779,67.803 356.805 C 68.490 358.135,68.581 358.959,68.000 358.600 C 67.780 358.464,67.600 358.690,67.600 359.101 C 67.600 360.190,69.609 361.562,70.643 361.180 C 71.099 361.011,71.709 361.020,71.999 361.200 C 72.290 361.379,72.769 361.433,73.064 361.320 C 73.388 361.196,73.612 361.407,73.632 361.857 C 73.649 362.278,73.751 362.383,73.865 362.100 C 74.127 361.449,74.863 361.449,74.743 362.100 C 74.613 362.800,76.518 366.645,76.710 366.070 C 76.980 365.260,77.600 365.558,77.606 366.500 C 77.611 367.188,77.697 367.266,77.972 366.832 C 78.282 366.342,78.461 366.345,79.266 366.853 C 79.780 367.178,81.266 367.480,82.569 367.524 C 85.446 367.622,85.420 367.599,85.316 370.015 C 85.249 371.578,85.348 371.918,85.816 371.738 C 86.323 371.544,86.560 372.065,86.481 373.200 C 86.473 373.310,87.307 373.389,88.333 373.375 C 90.720 373.342,92.516 373.921,92.242 374.635 C 92.128 374.932,92.235 375.298,92.479 375.449 C 92.767 375.627,92.810 375.539,92.600 375.200 C 92.384 374.851,92.433 374.773,92.745 374.966 C 93.002 375.125,93.122 375.402,93.011 375.582 C 92.900 375.762,93.077 376.132,93.404 376.404 C 93.732 376.676,94.000 377.225,94.000 377.625 C 94.000 378.412,94.536 378.931,94.936 378.531 C 95.072 378.395,95.752 378.238,96.447 378.184 C 97.142 378.129,97.515 378.205,97.277 378.353 C 96.997 378.526,96.975 378.831,97.215 379.211 C 97.542 379.727,97.589 379.726,97.600 379.200 C 97.607 378.847,97.733 378.765,97.906 379.000 C 98.265 379.489,98.482 379.530,101.301 379.644 C 103.092 379.716,103.580 379.882,103.734 380.468 C 103.839 380.871,103.762 381.100,103.563 380.977 C 103.363 380.854,103.200 380.943,103.200 381.176 C 103.200 381.409,103.380 381.600,103.600 381.600 C 103.820 381.600,104.000 381.977,104.000 382.437 C 104.000 382.938,104.321 383.359,104.800 383.484 C 105.240 383.599,105.600 383.863,105.600 384.070 C 105.600 384.278,105.780 384.336,106.000 384.200 C 106.220 384.064,106.400 384.244,106.400 384.600 C 106.400 384.956,106.583 385.134,106.807 384.996 C 107.030 384.858,107.086 384.532,106.930 384.272 C 106.768 384.003,106.938 384.036,107.323 384.349 C 107.695 384.651,108.000 384.764,108.000 384.600 C 108.000 384.436,108.251 384.510,108.558 384.765 C 108.865 385.020,109.270 385.200,109.458 385.167 C 111.630 384.777,114.800 385.271,114.800 386.000 C 114.800 386.440,115.064 386.800,115.387 386.800 C 115.745 386.800,115.885 387.035,115.745 387.400 C 115.614 387.740,115.735 388.000,116.024 388.000 C 116.304 388.000,116.415 388.118,116.270 388.263 C 116.125 388.408,116.207 388.768,116.452 389.063 C 116.885 389.584,116.845 389.644,116.000 389.750 C 115.458 389.818,115.435 390.545,115.970 390.723 C 116.207 390.802,116.400 390.672,116.400 390.433 C 116.400 390.195,116.580 390.000,116.800 390.000 C 117.020 390.000,117.155 390.202,117.100 390.450 C 117.045 390.697,117.230 390.954,117.510 391.020 C 117.791 391.086,117.834 391.048,117.608 390.936 C 117.381 390.824,117.302 390.558,117.433 390.346 C 117.578 390.112,117.904 390.154,118.266 390.455 C 118.743 390.851,118.933 390.835,119.224 390.374 C 119.536 389.882,119.589 389.885,119.594 390.400 C 119.599 390.878,120.269 391.015,122.900 391.072 C 124.715 391.112,126.412 391.157,126.671 391.172 C 126.930 391.187,127.224 391.515,127.324 391.900 C 127.498 392.567,127.509 392.567,127.554 391.900 C 127.593 391.310,128.008 391.200,130.200 391.200 C 132.946 391.200,132.991 391.239,132.907 393.500 C 132.897 393.775,133.049 394.000,133.244 394.000 C 133.440 394.000,133.600 394.244,133.600 394.542 C 133.600 394.839,134.017 395.534,134.527 396.084 C 135.539 397.175,134.604 397.096,147.500 397.175 L 151.600 397.200 151.600 398.600 L 151.600 400.000 200.800 400.000 L 250.000 400.000 250.000 398.600 L 250.000 397.200 257.900 397.153 C 262.245 397.127,265.955 397.133,266.145 397.168 C 266.335 397.202,266.712 396.927,266.982 396.556 C 267.315 396.101,267.824 395.949,268.551 396.089 C 269.143 396.202,269.546 396.213,269.446 396.113 C 269.346 396.013,269.835 395.386,270.532 394.720 L 271.800 393.509 270.469 394.555 C 269.737 395.130,268.657 395.596,268.069 395.591 C 267.122 395.583,267.193 395.495,268.696 394.812 C 269.865 394.282,270.604 393.600,271.070 392.621 C 271.734 391.229,271.797 391.200,274.174 391.176 C 278.867 391.129,281.887 390.917,282.402 390.599 C 282.747 390.386,282.827 390.433,282.638 390.738 C 282.182 391.476,283.253 391.271,283.886 390.500 C 284.237 390.072,284.347 390.033,284.171 390.400 C 283.938 390.884,283.986 390.904,284.416 390.505 C 285.048 389.919,285.389 388.236,284.802 388.599 C 284.539 388.761,284.530 388.510,284.775 387.866 C 284.980 387.327,285.048 386.507,284.927 386.043 C 284.718 385.242,288.305 384.835,293.183 385.106 C 293.504 385.124,294.111 384.955,294.532 384.730 C 295.077 384.438,295.219 384.446,295.025 384.760 C 294.875 385.002,294.943 385.200,295.176 385.200 C 295.409 385.200,295.614 384.885,295.632 384.500 C 295.652 384.055,295.739 383.988,295.870 384.317 C 296.030 384.713,296.208 384.725,296.639 384.368 C 297.299 383.820,297.401 383.029,296.760 383.425 C 296.440 383.622,296.440 383.472,296.760 382.875 C 297.002 382.422,297.200 381.518,297.200 380.864 L 297.200 379.675 301.100 379.511 C 303.245 379.421,305.360 379.207,305.800 379.036 C 306.436 378.789,306.477 378.813,306.000 379.156 C 305.481 379.529,305.495 379.589,306.100 379.594 C 306.485 379.597,306.800 379.390,306.800 379.133 C 306.800 378.877,306.918 378.785,307.063 378.930 C 307.592 379.459,308.442 378.333,307.956 377.747 C 307.604 377.323,307.647 377.200,308.151 377.200 C 308.508 377.200,308.797 376.885,308.794 376.500 C 308.789 375.897,308.730 375.883,308.368 376.400 C 308.050 376.854,308.019 376.757,308.242 376.000 C 308.404 375.450,308.517 374.685,308.493 374.300 C 308.449 373.591,309.059 373.474,312.684 373.495 C 313.423 373.500,313.932 373.311,313.884 373.051 C 313.838 372.803,314.025 372.645,314.300 372.700 C 314.575 372.755,314.779 372.665,314.753 372.500 C 314.727 372.335,314.727 371.182,314.753 369.937 L 314.800 367.675 318.700 367.511 C 320.845 367.421,322.960 367.207,323.400 367.036 C 324.036 366.789,324.077 366.813,323.600 367.156 C 323.081 367.529,323.095 367.589,323.700 367.594 C 324.100 367.597,324.403 367.300,324.406 366.900 C 324.410 366.454,324.519 366.365,324.706 366.656 C 324.921 366.989,325.132 366.970,325.488 366.585 C 325.873 366.171,325.873 366.017,325.488 365.861 C 325.210 365.748,325.302 365.650,325.700 365.632 C 326.091 365.614,326.397 365.291,326.394 364.900 C 326.389 364.295,326.329 364.281,325.956 364.800 C 325.607 365.285,325.575 365.247,325.790 364.600 C 325.936 364.160,326.156 363.305,326.278 362.700 C 326.461 361.795,326.722 361.592,327.750 361.557 C 330.885 361.450,331.344 361.369,331.501 360.898 C 331.593 360.621,331.818 360.487,332.000 360.600 C 332.183 360.713,332.329 360.129,332.325 359.303 C 332.308 355.776,332.132 356.000,334.920 356.000 C 338.071 356.000,338.400 355.671,338.400 352.520 L 338.400 350.000 340.300 349.953 C 341.345 349.927,342.340 349.928,342.511 349.956 C 342.682 349.984,342.926 349.737,343.053 349.406 C 343.180 349.075,343.402 348.878,343.547 348.967 C 343.691 349.056,343.863 348.025,343.928 346.675 C 344.071 343.714,343.759 344.018,346.721 343.951 C 348.075 343.921,349.098 343.758,348.994 343.590 C 348.890 343.422,349.075 343.180,349.406 343.053 C 349.737 342.926,349.984 342.682,349.956 342.511 C 349.928 342.340,349.927 341.345,349.953 340.300 L 350.000 338.400 352.520 338.400 C 355.671 338.400,356.000 338.071,356.000 334.920 C 356.000 332.132,355.776 332.308,359.303 332.325 C 360.129 332.329,360.713 332.183,360.600 332.000 C 360.487 331.818,360.621 331.593,360.898 331.501 C 361.369 331.344,361.450 330.885,361.557 327.750 C 361.592 326.722,361.795 326.461,362.700 326.278 C 363.305 326.156,364.160 325.936,364.600 325.790 C 365.247 325.575,365.285 325.607,364.800 325.956 C 364.281 326.329,364.295 326.389,364.900 326.394 C 365.300 326.397,365.603 326.100,365.606 325.700 C 365.610 325.254,365.719 325.165,365.906 325.456 C 366.121 325.789,366.332 325.770,366.688 325.385 C 367.073 324.971,367.073 324.817,366.688 324.661 C 366.410 324.548,366.502 324.450,366.900 324.432 C 367.291 324.414,367.597 324.091,367.594 323.700 C 367.589 323.095,367.529 323.081,367.156 323.600 C 366.813 324.077,366.789 324.036,367.036 323.400 C 367.207 322.960,367.421 320.845,367.511 318.700 L 367.675 314.800 369.937 314.753 C 371.182 314.727,372.348 314.731,372.530 314.763 C 372.711 314.794,372.745 314.635,372.606 314.410 C 372.467 314.184,372.615 314.000,372.937 314.000 C 373.343 314.000,373.494 313.618,373.433 312.739 C 373.284 310.584,373.749 308.684,374.451 308.581 C 374.809 308.528,375.528 308.364,376.051 308.216 C 376.783 308.009,376.863 308.044,376.400 308.368 C 375.883 308.730,375.897 308.789,376.500 308.794 C 376.885 308.797,377.200 308.601,377.200 308.357 C 377.200 308.114,377.457 308.013,377.771 308.133 C 378.395 308.373,379.354 307.488,378.930 307.063 C 378.785 306.918,378.877 306.800,379.133 306.800 C 379.390 306.800,379.597 306.485,379.594 306.100 C 379.589 305.495,379.529 305.481,379.156 306.000 C 378.813 306.477,378.789 306.436,379.036 305.800 C 379.207 305.360,379.421 303.245,379.511 301.100 L 379.675 297.200 381.137 297.153 C 381.942 297.127,382.838 297.137,383.130 297.177 C 384.016 297.297,384.941 296.336,384.319 295.941 C 383.933 295.697,383.979 295.611,384.500 295.606 C 384.885 295.603,385.200 295.409,385.200 295.176 C 385.200 294.943,385.002 294.875,384.760 295.025 C 384.452 295.215,384.434 295.072,384.701 294.548 C 384.910 294.137,385.121 291.912,385.170 289.604 C 385.274 284.671,385.033 285.079,387.904 284.981 C 390.822 284.880,390.800 284.885,390.800 284.351 C 390.800 284.070,390.605 284.033,390.281 284.251 C 389.996 284.443,390.065 284.318,390.435 283.973 C 390.875 283.564,391.104 282.731,391.097 281.573 C 391.049 274.014,391.194 272.312,391.861 272.568 C 392.801 272.929,395.133 272.073,395.603 271.194 C 396.299 269.894,396.037 269.885,394.586 271.159 C 393.122 272.444,392.546 272.735,393.036 271.942 C 393.236 271.618,392.980 271.559,392.160 271.741 C 391.130 271.970,391.171 271.907,392.531 271.174 C 393.562 270.618,394.310 269.803,394.822 268.675 C 395.240 267.754,395.586 267.237,395.591 267.526 C 395.603 268.248,394.864 269.620,393.880 270.700 C 393.429 271.195,393.256 271.600,393.495 271.600 C 393.734 271.600,394.375 271.070,394.920 270.422 C 395.465 269.774,396.042 269.369,396.202 269.522 C 396.362 269.675,396.368 269.215,396.215 268.500 C 396.001 267.501,396.084 267.142,396.575 266.954 C 396.927 266.819,397.190 266.504,397.160 266.254 C 397.130 266.005,397.127 262.245,397.153 257.900 L 397.200 250.000 398.600 250.000 L 400.000 250.000 400.000 200.200 L 400.000 150.400 398.600 150.400 L 397.200 150.400 397.153 142.500 C 397.127 138.155,397.134 134.375,397.170 134.100 C 397.206 133.825,397.053 133.600,396.830 133.600 C 396.607 133.600,396.540 133.300,396.681 132.934 C 396.862 132.461,396.788 132.360,396.425 132.584 C 396.046 132.819,395.984 132.679,396.186 132.044 C 396.907 129.771,394.692 127.200,392.013 127.200 C 391.264 127.200,391.198 126.941,391.172 123.900 C 391.118 117.632,390.920 115.521,390.350 115.161 C 389.537 114.646,388.096 114.726,387.865 115.300 C 387.704 115.700,387.657 115.700,387.632 115.300 C 387.614 115.018,387.076 114.800,386.400 114.800 L 385.200 114.800 385.140 111.100 C 385.108 109.065,385.072 106.635,385.062 105.700 C 385.051 104.765,384.888 104.000,384.698 104.000 C 384.508 104.000,384.474 103.804,384.622 103.565 C 384.795 103.284,384.486 103.164,383.745 103.226 C 383.115 103.279,381.925 103.185,381.100 103.017 L 379.600 102.711 379.540 99.255 C 379.507 97.355,379.518 95.305,379.565 94.700 C 379.630 93.875,379.470 93.598,378.926 93.594 C 378.311 93.589,378.292 93.529,378.800 93.200 C 379.309 92.871,379.290 92.811,378.676 92.806 C 378.278 92.803,378.066 92.617,378.204 92.393 C 378.342 92.170,378.651 92.108,378.889 92.255 C 379.159 92.422,379.208 92.336,379.017 92.027 C 378.848 91.754,378.370 91.619,377.954 91.728 C 377.539 91.836,377.300 91.762,377.423 91.563 C 377.546 91.363,376.962 91.203,376.124 91.206 C 374.993 91.211,374.755 91.312,375.200 91.600 C 376.004 92.119,375.350 92.108,374.374 91.586 C 373.775 91.265,373.600 90.741,373.600 89.266 C 373.600 88.218,373.375 87.118,373.100 86.821 C 372.694 86.383,372.712 86.344,373.200 86.610 C 373.596 86.826,373.546 86.648,373.052 86.084 C 372.454 85.402,371.869 85.237,370.127 85.257 C 367.406 85.290,367.647 85.729,367.565 80.584 C 367.525 78.074,367.303 75.953,367.047 75.623 C 366.714 75.193,366.718 75.117,367.063 75.324 C 367.372 75.509,367.457 75.339,367.319 74.810 C 367.053 73.795,364.504 73.221,363.926 74.047 C 363.627 74.474,363.493 74.486,363.336 74.100 C 363.225 73.825,362.788 73.600,362.367 73.600 C 361.747 73.600,361.590 73.293,361.550 72.000 C 361.489 70.045,361.468 69.926,361.070 69.300 C 360.877 68.995,360.953 68.800,361.265 68.800 C 361.547 68.800,361.376 68.519,360.886 68.175 C 360.395 67.831,359.500 67.588,358.897 67.635 C 356.071 67.855,356.001 67.798,355.994 65.300 C 355.986 62.284,355.864 62.155,352.700 61.821 L 350.000 61.536 350.000 59.592 C 350.000 58.522,349.820 57.536,349.600 57.400 C 349.380 57.264,349.203 56.938,349.206 56.676 C 349.210 56.383,349.375 56.431,349.637 56.800 C 350.014 57.333,350.043 57.333,349.898 56.800 C 349.777 56.352,349.008 56.170,346.868 56.082 L 344.000 55.965 344.000 53.625 C 344.000 51.872,343.843 51.225,343.375 51.046 C 343.031 50.914,342.869 50.612,343.015 50.376 C 343.161 50.140,343.037 49.980,342.740 50.021 C 342.443 50.061,341.345 50.073,340.300 50.047 L 338.400 50.000 338.394 47.700 C 338.385 44.528,338.133 44.255,335.135 44.178 C 332.386 44.107,332.004 43.646,332.257 40.700 C 332.309 40.095,332.183 39.600,331.976 39.600 C 331.769 39.600,331.645 39.397,331.700 39.150 C 331.755 38.902,331.550 38.609,331.244 38.498 C 330.864 38.360,330.788 38.470,331.003 38.848 C 331.257 39.294,331.214 39.304,330.779 38.900 C 330.482 38.625,329.376 38.400,328.320 38.400 C 326.232 38.400,326.276 38.468,326.296 35.306 C 326.300 34.594,326.164 34.098,325.994 34.204 C 325.823 34.309,325.577 34.117,325.446 33.777 C 325.311 33.423,325.378 33.263,325.605 33.403 C 325.822 33.537,326.000 33.478,326.000 33.270 C 326.000 32.842,324.650 32.414,323.276 32.405 C 322.761 32.402,322.462 32.577,322.600 32.800 C 322.736 33.020,322.667 33.200,322.447 33.200 C 322.227 33.200,321.936 33.020,321.800 32.800 C 321.664 32.580,320.033 32.400,318.176 32.400 L 314.800 32.400 314.800 30.480 C 314.800 29.424,314.575 28.318,314.300 28.021 C 313.894 27.583,313.912 27.544,314.400 27.810 C 314.814 28.036,314.776 27.881,314.275 27.310 C 313.712 26.667,313.053 26.476,311.323 26.456 C 308.642 26.424,308.766 26.531,308.620 24.136 C 308.555 23.071,308.456 22.155,308.401 22.100 C 308.345 22.045,308.277 21.775,308.250 21.500 C 308.218 21.181,307.477 20.982,306.200 20.951 C 305.100 20.924,302.580 20.836,300.600 20.756 L 297.000 20.610 297.084 18.548 C 297.155 16.796,297.049 16.454,296.384 16.280 C 295.953 16.167,295.603 15.833,295.606 15.537 C 295.611 15.091,295.671 15.092,295.956 15.543 C 296.177 15.891,296.391 15.937,296.556 15.672 C 296.940 15.051,295.250 14.661,294.581 15.216 C 294.171 15.556,294.000 15.566,294.000 15.249 C 294.000 14.943,292.549 14.800,289.454 14.800 L 284.908 14.800 285.043 13.000 C 285.134 11.778,285.021 11.198,284.689 11.194 C 284.323 11.189,284.330 11.105,284.714 10.862 C 285.375 10.442,284.876 9.085,284.161 9.360 C 283.867 9.473,283.510 9.378,283.369 9.150 C 283.228 8.922,282.367 8.774,281.456 8.821 C 276.518 9.078,272.426 8.797,272.649 8.216 C 272.772 7.896,272.657 6.978,272.393 6.178 C 271.494 3.455,268.936 2.998,253.700 2.839 L 250.000 2.800 250.000 1.400 L 250.000 0.000 200.200 0.000 L 150.400 0.000 150.400 1.400 M268.400 4.443 C 268.400 4.692,268.692 4.774,269.067 4.630 C 269.760 4.364,272.406 6.551,272.394 7.378 C 272.391 7.610,272.196 7.530,271.962 7.200 C 271.636 6.741,271.590 6.883,271.767 7.800 C 271.988 8.942,271.960 8.927,271.182 7.485 C 270.706 6.601,269.790 5.696,268.983 5.311 C 267.661 4.681,267.151 4.000,268.000 4.000 C 268.220 4.000,268.400 4.199,268.400 4.443 M269.233 4.900 C 269.325 4.955,269.940 5.450,270.600 6.000 L 271.800 7.000 270.830 5.900 C 270.297 5.295,269.682 4.800,269.464 4.800 C 269.245 4.800,269.142 4.845,269.233 4.900 M74.887 34.473 C 74.277 35.083,73.906 34.712,74.244 33.830 C 74.430 33.346,74.631 33.271,74.933 33.573 C 75.236 33.876,75.222 34.138,74.887 34.473 M34.800 74.000 C 35.576 74.501,36.000 74.501,36.000 74.000 C 36.000 73.780,35.595 73.603,35.100 73.606 C 34.372 73.611,34.315 73.686,34.800 74.000 M32.412 76.580 C 32.403 77.441,32.520 77.640,32.841 77.319 C 33.158 77.002,33.161 76.668,32.854 76.139 C 32.477 75.491,32.423 75.546,32.412 76.580 M23.339 91.654 C 23.868 91.961,24.202 91.958,24.519 91.641 C 24.840 91.320,24.641 91.203,23.780 91.212 C 22.746 91.223,22.691 91.277,23.339 91.654 M21.192 92.210 C 20.914 92.545,20.802 92.935,20.943 93.076 C 21.084 93.218,21.200 93.113,21.200 92.843 C 21.200 92.573,21.383 92.466,21.607 92.604 C 21.830 92.742,21.909 93.023,21.783 93.228 C 21.656 93.432,21.721 93.600,21.926 93.600 C 22.132 93.600,22.300 93.150,22.300 92.600 C 22.300 91.459,21.925 91.327,21.192 92.210 M317.667 101.949 C 322.754 103.060,324.916 105.125,327.146 111.000 C 330.025 118.586,329.063 156.800,325.993 156.800 C 325.788 156.800,325.360 157.304,325.042 157.919 C 324.723 158.535,323.504 159.570,322.331 160.219 L 320.200 161.400 301.800 161.400 C 280.558 161.400,280.696 161.418,277.781 158.339 C 275.614 156.050,275.667 155.508,278.420 151.774 C 280.890 148.425,283.236 147.929,297.750 147.688 L 309.301 147.497 310.785 145.968 C 313.073 143.610,314.012 139.502,314.005 131.883 L 314.000 125.966 312.567 123.283 C 310.111 118.685,310.224 118.744,303.134 118.308 C 293.077 117.688,265.532 118.210,257.200 119.178 C 246.452 120.427,160.315 120.430,149.800 119.182 C 141.533 118.201,114.388 117.684,104.136 118.313 C 93.987 118.935,92.972 120.262,93.041 132.821 C 93.092 141.956,93.451 143.704,95.726 145.900 L 97.400 147.516 108.800 147.700 C 125.226 147.966,127.854 148.824,130.120 154.665 C 130.684 156.120,130.692 156.392,130.183 156.814 C 129.862 157.080,129.600 157.531,129.600 157.815 C 129.600 159.352,126.578 160.784,122.367 161.242 C 115.778 161.959,86.559 161.550,85.000 160.719 C 83.236 159.779,80.377 156.562,79.993 155.085 C 78.542 149.508,78.348 117.246,79.729 111.431 C 80.705 107.323,84.506 102.406,86.715 102.394 C 87.312 102.391,88.610 102.133,89.600 101.821 C 92.801 100.812,313.032 100.936,317.667 101.949 M252.772 121.794 C 256.870 122.516,257.767 123.231,261.006 128.357 C 261.230 128.711,261.894 129.720,262.484 130.600 C 263.073 131.480,263.827 133.370,264.160 134.800 C 264.493 136.230,265.043 138.582,265.383 140.026 C 265.722 141.470,266.000 143.290,266.000 144.071 C 266.000 144.852,266.174 146.410,266.388 147.534 C 266.601 148.658,266.965 153.228,267.197 157.689 C 267.658 166.553,268.422 175.203,269.592 184.800 C 270.008 188.210,270.450 192.295,270.575 193.877 C 270.827 197.081,272.329 205.588,273.774 212.000 C 275.377 219.106,276.845 231.343,277.782 245.400 C 278.407 254.759,279.154 261.971,280.209 268.800 C 280.532 270.890,281.250 276.290,281.805 280.800 C 282.360 285.310,283.064 290.847,283.369 293.105 C 284.302 300.003,283.343 304.378,280.170 307.709 C 276.878 311.165,274.359 311.660,260.372 311.603 C 253.055 311.574,248.616 311.750,244.772 312.224 C 239.208 312.911,232.828 312.845,226.200 312.035 C 222.098 311.533,185.746 311.535,181.000 312.038 C 174.233 312.754,166.730 312.917,163.800 312.412 C 162.242 312.143,154.590 311.803,146.552 311.645 L 132.103 311.360 129.952 310.052 C 123.242 305.974,122.097 301.961,123.946 289.000 C 124.386 285.920,124.864 281.870,125.009 280.000 C 125.153 278.130,125.532 275.070,125.850 273.200 C 127.896 261.179,129.600 244.809,129.600 237.179 C 129.600 232.582,130.955 222.926,132.965 213.200 C 133.488 210.670,134.109 207.070,134.346 205.200 C 134.582 203.330,135.241 198.740,135.809 195.000 C 138.049 180.251,138.788 172.874,138.794 165.200 C 138.804 153.889,139.535 147.571,141.828 139.000 C 142.416 136.800,143.024 134.367,143.178 133.594 C 143.485 132.053,144.280 130.663,146.286 128.159 C 147.008 127.256,147.600 126.256,147.600 125.937 C 147.600 124.384,151.497 122.096,155.200 121.476 C 158.431 120.936,249.580 121.233,252.772 121.794 M392.000 128.043 C 392.000 128.286,392.261 128.385,392.580 128.263 C 392.900 128.140,393.575 128.385,394.080 128.807 C 394.586 129.228,394.860 129.579,394.690 129.587 C 394.519 129.594,394.654 130.131,394.990 130.780 C 395.325 131.429,395.592 132.104,395.582 132.280 C 395.573 132.456,395.205 131.918,394.765 131.085 C 394.292 130.188,393.402 129.302,392.583 128.911 C 391.261 128.281,390.751 127.600,391.600 127.600 C 391.820 127.600,392.000 127.799,392.000 128.043 M189.800 138.733 C 187.816 139.412,184.756 141.295,184.161 142.203 C 183.802 142.751,183.323 143.200,183.098 143.200 C 182.872 143.200,180.688 145.177,178.244 147.593 C 173.638 152.146,172.678 152.779,166.034 155.638 C 163.591 156.690,161.473 157.951,160.003 159.230 C 158.757 160.313,157.552 161.200,157.325 161.200 C 156.890 161.200,154.525 165.321,153.739 167.446 C 153.296 168.648,152.903 171.979,152.001 182.200 C 150.434 199.954,150.021 204.068,148.608 216.000 C 146.891 230.489,146.371 234.340,145.168 241.471 C 143.303 252.518,143.214 255.743,144.688 258.858 C 146.285 262.234,149.014 264.943,151.712 265.831 C 159.146 268.277,166.867 274.188,171.015 280.608 C 171.865 281.924,172.866 283.360,173.240 283.800 C 173.613 284.240,174.768 286.220,175.805 288.200 C 179.797 295.822,180.166 295.922,204.200 295.953 C 223.833 295.977,225.937 295.658,228.891 292.207 C 229.271 291.763,229.586 291.158,229.591 290.862 C 229.596 290.566,230.549 288.856,231.710 287.062 C 232.870 285.268,234.154 283.133,234.563 282.319 C 234.971 281.504,235.597 280.512,235.953 280.115 C 236.309 279.718,237.206 278.674,237.947 277.796 C 240.792 274.423,244.943 270.400,245.577 270.400 C 245.942 270.400,246.424 270.216,246.650 269.990 C 247.345 269.295,254.094 266.000,254.823 266.000 C 257.103 266.000,261.356 261.590,262.225 258.325 C 263.164 254.798,262.308 241.888,260.413 231.000 C 258.153 218.015,257.198 209.698,256.806 199.600 C 256.081 180.964,252.323 161.200,249.503 161.200 C 249.224 161.200,248.096 160.396,246.997 159.414 C 244.923 157.559,244.604 157.379,237.475 154.047 C 233.495 152.186,232.807 151.688,228.847 147.792 C 226.480 145.464,224.016 143.234,223.372 142.837 C 222.727 142.439,221.851 141.722,221.425 141.243 C 219.231 138.775,218.188 138.615,203.800 138.534 C 196.540 138.493,190.240 138.583,189.800 138.733 M211.057 168.226 C 216.694 169.348,222.532 171.552,224.355 173.246 C 225.353 174.172,226.628 174.800,227.514 174.800 C 230.326 174.800,242.321 187.505,243.077 191.284 C 243.213 191.966,243.946 193.801,244.706 195.362 C 249.805 205.838,248.793 218.477,241.768 232.062 C 241.085 233.383,231.437 243.200,230.822 243.200 C 230.612 243.200,229.936 243.718,229.320 244.350 C 227.929 245.778,225.214 247.126,220.800 248.579 C 218.930 249.194,216.860 250.016,216.200 250.404 C 213.512 251.985,210.671 252.431,203.286 252.430 C 195.716 252.428,194.808 252.260,189.600 249.900 C 188.390 249.351,185.827 248.419,183.904 247.828 C 176.891 245.674,165.291 234.444,162.595 227.200 C 162.227 226.210,161.785 225.040,161.613 224.600 C 158.302 216.136,158.025 206.703,160.840 198.341 C 161.756 195.624,162.637 193.220,162.800 193.000 C 162.963 192.780,163.307 191.944,163.565 191.142 C 163.823 190.341,164.476 189.171,165.017 188.542 C 165.557 187.914,165.999 187.211,166.000 186.980 C 166.001 185.755,175.968 176.456,178.647 175.180 C 180.161 174.459,182.306 173.269,183.413 172.535 C 189.339 168.611,202.604 166.542,211.057 168.226 M199.377 183.849 C 195.837 184.288,192.785 185.526,189.200 187.977 C 188.650 188.353,187.570 188.901,186.800 189.196 C 184.965 189.898,184.047 190.714,183.428 192.192 C 183.150 192.856,182.150 194.097,181.206 194.948 C 179.230 196.731,178.282 200.890,179.037 204.459 L 179.406 206.200 180.537 203.891 C 182.286 200.319,183.260 199.966,191.314 199.982 C 197.371 199.994,198.091 199.913,202.200 198.757 C 213.172 195.669,223.191 198.158,225.587 204.565 C 226.672 207.468,227.143 207.503,227.970 204.743 C 229.000 201.304,227.817 195.880,225.802 194.801 C 225.328 194.547,224.471 193.617,223.898 192.733 C 222.648 190.805,220.730 189.321,218.811 188.798 C 218.035 188.586,216.860 187.939,216.200 187.360 C 212.678 184.269,206.459 182.971,199.377 183.849 M226.242 213.229 C 225.626 217.078,222.668 219.047,218.247 218.551 C 213.322 217.998,208.895 218.338,206.729 219.436 C 205.683 219.966,204.407 220.400,203.893 220.400 C 203.380 220.400,202.789 220.564,202.580 220.765 C 200.193 223.057,192.060 223.663,189.351 221.750 C 187.958 220.767,187.792 220.675,185.139 219.416 C 182.370 218.103,180.610 216.240,179.964 213.939 L 179.475 212.200 178.920 214.000 C 176.362 222.282,179.167 227.326,189.580 233.173 C 190.141 233.488,191.410 233.884,192.400 234.053 C 193.390 234.222,195.550 234.663,197.200 235.034 C 204.621 236.699,216.434 234.930,220.200 231.591 C 220.860 231.006,222.030 230.106,222.800 229.592 C 223.570 229.078,224.512 228.340,224.894 227.952 C 225.275 227.564,225.830 227.101,226.126 226.923 C 228.734 225.357,229.471 218.869,227.606 213.900 C 226.577 211.159,226.573 211.157,226.242 213.229 M393.200 269.600 C 392.965 270.040,392.570 270.400,392.324 270.400 C 392.078 270.400,392.202 270.040,392.600 269.600 C 392.998 269.160,393.392 268.800,393.476 268.800 C 393.560 268.800,393.435 269.160,393.200 269.600 M8.860 281.500 C 8.797 282.856,9.299 283.139,10.400 282.368 C 10.874 282.036,10.817 281.999,10.128 282.192 C 9.404 282.395,9.228 282.247,9.088 281.318 C 8.928 280.255,8.917 280.264,8.860 281.500 M147.098 281.517 C 144.230 281.625,143.944 281.715,143.298 282.710 C 142.914 283.302,142.269 284.120,141.865 284.528 C 141.416 284.981,141.211 285.606,141.337 286.135 C 141.450 286.611,141.665 287.900,141.815 289.000 C 142.069 290.869,142.773 292.454,143.773 293.406 C 144.269 293.878,149.508 295.614,150.411 295.606 C 151.714 295.593,156.800 292.834,156.844 292.116 C 156.938 290.596,156.725 289.622,155.976 288.154 C 155.549 287.316,155.200 286.424,155.200 286.172 C 155.200 285.820,151.478 282.223,150.387 281.521 C 150.284 281.454,148.804 281.453,147.098 281.517 M258.782 281.559 C 257.562 281.691,256.122 282.090,255.582 282.445 C 253.803 283.613,252.000 285.509,252.000 286.212 C 252.000 286.592,251.447 287.868,250.772 289.049 C 249.155 291.876,249.388 292.428,252.937 294.182 L 255.837 295.615 258.818 294.946 C 263.161 293.973,264.425 292.657,265.010 288.502 L 265.446 285.400 263.647 283.300 C 262.657 282.145,261.657 281.226,261.424 281.259 C 261.191 281.291,260.002 281.426,258.782 281.559 M36.800 321.987 C 36.800 322.529,36.991 322.702,37.410 322.541 C 37.881 322.360,37.915 322.180,37.561 321.753 C 36.945 321.010,36.800 321.055,36.800 321.987 M34.998 322.394 C 35.185 322.982,35.095 323.434,34.743 323.682 C 34.369 323.946,34.544 323.989,35.309 323.822 C 36.205 323.627,36.481 323.748,36.742 324.454 C 36.973 325.079,37.124 325.168,37.270 324.764 C 37.383 324.453,36.856 323.593,36.093 322.844 C 34.910 321.684,34.752 321.619,34.998 322.394 M32.406 323.263 C 32.401 324.144,32.542 324.288,33.234 324.107 C 33.798 323.959,33.912 323.793,33.587 323.592 C 33.322 323.428,32.950 323.048,32.759 322.747 C 32.513 322.358,32.410 322.508,32.406 323.263 M73.600 364.714 C 73.600 365.333,73.793 365.475,74.416 365.312 C 74.865 365.194,75.180 365.070,75.116 365.036 C 75.052 365.002,74.685 364.733,74.300 364.438 C 73.687 363.969,73.600 364.003,73.600 364.714 M74.449 365.961 C 74.146 366.153,74.021 366.511,74.172 366.755 C 74.617 367.474,75.155 367.266,75.090 366.400 C 75.057 365.960,75.023 365.603,75.015 365.606 C 75.007 365.609,74.752 365.769,74.449 365.961 M91.206 376.063 C 91.201 376.944,91.342 377.088,92.034 376.907 C 92.598 376.759,92.712 376.593,92.387 376.392 C 92.122 376.228,91.750 375.848,91.559 375.547 C 91.313 375.158,91.210 375.308,91.206 376.063 M268.840 392.158 C 268.298 392.735,268.103 393.216,268.350 393.369 C 268.575 393.508,269.163 393.077,269.655 392.411 C 270.773 390.899,271.415 390.827,270.647 392.300 C 270.048 393.450,267.600 395.155,267.600 394.423 C 267.600 394.190,267.816 394.000,268.080 394.000 C 268.452 394.000,268.452 393.892,268.083 393.523 C 267.648 393.088,268.832 391.200,269.539 391.200 C 269.649 391.200,269.335 391.631,268.840 392.158 M127.612 392.881 C 127.583 393.556,128.562 395.177,129.132 395.395 C 129.696 395.612,129.696 395.566,129.134 394.917 C 128.792 394.523,128.312 393.840,128.068 393.400 C 127.824 392.960,127.619 392.727,127.612 392.881 M271.271 394.851 C 270.614 395.661,270.530 395.925,270.982 395.752 C 271.591 395.518,272.612 394.057,272.332 393.818 C 272.260 393.756,271.782 394.221,271.271 394.851 " stroke="none" fill="#d92027" fill-rule="evenodd"></path></g></svg>