<?xml version="1.0" encoding="UTF-8"?><svg id="a" xmlns="http://www.w3.org/2000/svg" viewBox="0 0 20 20"><path d="M3.14,8.52c.03-.1,.05-.21,.08-.31,.04-.13,.13-.2,.27-.2,.41,0,.82,0,1.23,0,.14,0,.22,.08,.26,.21l.06,.2c.13-.35,.25-.68,.36-1,.15-.42,.3-.84,.45-1.26,.17-.45,.49-.69,.98-.69,2.1,0,4.2,0,6.3,0,.48,0,.81,.24,.97,.69,.27,.74,.54,1.48,.82,2.25,.03-.09,.05-.15,.06-.21,.04-.13,.13-.2,.27-.2,.41,0,.82,0,1.23,0,.14,0,.22,.08,.26,.21,.09,.27,.11,.55,.01,.83-.06,.19-.14,.25-.34,.25-.35,0-.7,0-1.04,0-.04,0-.08,0-.15,0,.04,.03,.05,.05,.07,.06,.29,.13,.4,.37,.4,.68,0,.93,0,1.85,0,2.78,0,.42,0,.85,0,1.27,0,.3-.11,.41-.41,.41-.45,0-.9,0-1.35,0-.3,0-.41-.11-.41-.41,0-.41,0-.83,0-1.24,0-.05,0-.1,0-.15H6.44c0,.17,0,.33,0,.5,0,.31,0,.62,0,.92,0,.27-.12,.38-.38,.38-.47,0-.94,0-1.4,0-.27,0-.38-.12-.38-.39,0-1.37,0-2.74,0-4.11,0-.3,.12-.52,.4-.65,.01,0,.02-.01,.03-.02,0,0,0-.02,0-.04-.04,0-.08,0-.13,0-.33,0-.66,0-.99,0-.27,0-.33-.05-.41-.3-.02-.07-.04-.14-.06-.2v-.27Zm10.89,.79s-.02-.06-.02-.08c-.3-.84-.61-1.67-.9-2.51-.04-.1-.1-.09-.17-.09-1.96,0-3.92,0-5.88,0-.11,0-.15,.03-.19,.13-.24,.69-.49,1.37-.74,2.06-.06,.16-.11,.32-.18,.5H14.03Zm-7.6,.9c-.21,0-.42,0-.63,0-.3,0-.52,.21-.53,.49,0,.29,.21,.51,.51,.52,.42,0,.85,0,1.27,0,.31,0,.52-.22,.52-.51,0-.29-.22-.49-.53-.5-.2,0-.41,0-.61,0Zm7.12,0c-.21,0-.42,0-.63,0-.3,0-.52,.21-.53,.49,0,.29,.2,.51,.51,.52,.43,0,.86,0,1.28,0,.31,0,.52-.23,.51-.52,0-.28-.23-.48-.53-.49-.2,0-.41,0-.61,0Z"/></svg>