<?xml version="1.0" encoding="UTF-8"?><svg id="a" xmlns="http://www.w3.org/2000/svg" viewBox="0 0 20 20"><defs><style>.b{fill:#fff;}</style></defs><path class="b" d="M17.45,13.62v3.83H2.55V2.55h14.9v3.86c-.03-.09-.05-.19-.08-.28-.22-.67-.81-1.08-1.57-1.08-2.96,0-5.92,0-8.89,0-.91,0-1.82,0-2.73,0-.94,0-1.61,.67-1.61,1.61,0,2.23,0,4.46,0,6.69,0,.18,.03,.37,.08,.54,.21,.67,.8,1.07,1.56,1.07,2.7,0,5.4,0,8.1,0,1.17,0,2.33,0,3.5,0,.56,0,1.03-.2,1.34-.67,.13-.2,.19-.46,.29-.69Z"/><path d="M17.45,13.62c-.09,.23-.15,.48-.29,.69-.31,.47-.78,.67-1.34,.67-1.17,0-2.33,0-3.5,0-2.7,0-5.4,0-8.1,0-.75,0-1.34-.4-1.56-1.07-.05-.17-.08-.36-.08-.54,0-2.23,0-4.46,0-6.69,0-.94,.67-1.61,1.61-1.61,.91,0,1.82,0,2.73,0,2.96,0,5.92,0,8.89,0,.76,0,1.35,.41,1.57,1.08,.03,.09,.05,.19,.08,.28v7.2ZM3.2,9.41c0,.06,0,.11,0,.16,0,1.26,0,2.52,0,3.77,0,.62,.45,1.02,1.02,1.02,3.87,0,7.73-.01,11.6,0,.58,0,1.03-.41,1.02-1.02-.01-1.25,0-2.51,0-3.76v-.16H3.2Zm13.62-1.85H3.22v1.21h13.59v-1.21Zm-13.6-.65h13.6c.11-.72-.3-1.22-.98-1.22-3.88,0-7.76,0-11.64,0-.09,0-.19,0-.27,.02-.52,.12-.8,.6-.71,1.2Z"/><path d="M16.81,7.55v1.21H3.22v-1.21h13.59Z"/><path class="b" d="M3.21,6.9c-.1-.59,.19-1.08,.71-1.2,.09-.02,.18-.02,.27-.02,3.88,0,7.76,0,11.64,0,.68,0,1.09,.51,.98,1.22H3.21Z"/><path d="M13.13,11.88c0-.16-.02-.33,0-.49,.06-.38,.38-.69,.76-.73,.3-.03,.61-.03,.91,0,.44,.04,.77,.43,.78,.87,0,.21,0,.43,0,.64,0,.5-.34,.89-.83,.93-.28,.03-.56,.02-.84,0-.46-.05-.79-.42-.8-.88,0-.11,0-.22,0-.33h.01Zm1.23,.61h0c.1,0,.19,0,.29,0,.2,0,.32-.12,.33-.31,0-.2,0-.41,0-.61,0-.19-.13-.3-.32-.31-.2,0-.41,0-.61,0-.18,0-.3,.12-.31,.3,0,.21,0,.43,0,.64,0,.17,.13,.28,.3,.29,.11,0,.21,0,.32,0Z"/><path d="M8.57,12.18c.38,0,.75,0,1.13,0,.03,0,.06,0,.08,0,.12,.02,.19,.14,.19,.31,0,.17-.08,.29-.2,.31-.02,0-.04,0-.06,0-.77,0-1.54,0-2.3,0-.04,0-.08,0-.11-.02-.09-.04-.14-.16-.14-.29,0-.14,.06-.25,.14-.29,.04-.02,.08-.02,.12-.02,.38,0,.76,0,1.14,0Z"/><path d="M5.53,12.18c.3,0,.6,0,.91,0,.09,0,.15,.09,.17,.23,.02,.2-.05,.38-.15,.38-.12,0-.23,0-.35,0-.48,0-.96,0-1.44,0-.02,0-.04,0-.07,0-.09-.01-.15-.14-.15-.31,0-.17,.06-.3,.15-.31,.14,0,.28,0,.42,0,.17,0,.34,0,.51,0Z"/><path d="M14.35,12.49c-.11,0-.21,0-.32,0-.17,0-.29-.12-.3-.29,0-.21,0-.43,0-.64,0-.18,.13-.29,.31-.3,.2,0,.41,0,.61,0,.19,0,.31,.12,.32,.31,0,.2,0,.41,0,.61,0,.2-.13,.31-.33,.31-.1,0-.19,0-.29,0h0Z"/></svg>