<?xml version="1.0" encoding="utf-8"?>
<!-- Generator: Adobe Illustrator 26.0.3, SVG Export Plug-In . SVG Version: 6.00 Build 0)  -->
<svg version="1.1" id="Layer_1" xmlns="http://www.w3.org/2000/svg" xmlns:xlink="http://www.w3.org/1999/xlink" x="0px" y="0px"
	 viewBox="0 0 645 79" style="enable-background:new 0 0 645 79;" xml:space="preserve">
<style type="text/css">
	.st0{fill:#FFFFFF;}
	.st1{fill:#D71920;}
</style>
<rect class="st0" width="78.8" height="79"/>
<g id="Layer_2_00000173150138127212858640000000436390968270935963_">
	<g id="Layer_1-2">
		<path class="st0" d="M255.4,54.5c-0.4-1-0.6-2.1-0.5-3.2c-0.1-0.9-0.1-4.4-0.1-9.3v-5.8c0-3.6,0-7.4,0.1-8.9
			c-0.1-0.4,0.2-0.8,0.6-0.9c0.9-0.2,1.9-0.3,2.9-0.3c3.7,0,8.9,0.5,13.2,4.4c2.1,1.8,4.4,5.6,4.4,11.4c0,4.7-1,8.8-4,11.4
			c-2.8,2.4-6,3.1-10.3,3.1C257.9,56.4,256,55.4,255.4,54.5 M251.5,23.9c-1.3,0-4.4-0.1-6.8-0.1c-0.7,0-1.1,0.1-1.1,0.4
			s0.3,0.5,0.8,0.5c0.6,0,1.3,0.1,1.9,0.2c1.5,0.4,1.9,0.9,2,2.5s0.1,2.7,0.1,9.7v8.1c0,4.2,0,7.8-0.2,9.7c-0.2,1.3-0.4,2.2-1.4,2.4
			c-0.6,0.1-1.1,0.2-1.7,0.2c-0.6,0-0.8,0.3-0.8,0.5s0.3,0.5,0.9,0.5c1,0,2.1-0.1,3.3-0.1s2.2-0.1,2.7-0.1c1.2,0,2.9,0.1,4.8,0.3
			s3.9,0.3,5.6,0.3c8.7,0,13.7-3.2,15.9-5.4c3.4-3.4,5.3-7.9,5.2-12.7c0.2-4.3-1.5-8.5-4.5-11.6c-5.2-5.2-13.1-5.2-19-5.2
			C256.4,23.8,253,23.9,251.5,23.9 M375.8,41.4c-0.3-0.2-0.4-0.3-0.4-0.8V26.9c0-0.4,0.1-0.5,0.4-0.6c0.9-0.1,1.9-0.2,2.8-0.2
			c2.8,0,7.2,1.7,7.2,8.1c0,3.8-1.6,5.8-3.1,6.8c-0.8,0.6-1.5,0.8-3.3,0.8C378.2,41.8,377,41.7,375.8,41.4 M372.1,23.9
			c-1,0-4-0.1-6.5-0.1c-0.7,0-1.1,0.1-1.1,0.4s0.3,0.5,0.8,0.5c0.6,0,1.3,0.1,1.9,0.2c1.5,0.4,1.9,0.9,2,2.5s0.1,2.7,0.1,9.7v8.1
			c0,4.2,0,7.8-0.2,9.7c-0.2,1.3-0.4,2.2-1.4,2.4c-0.6,0.1-1.1,0.2-1.7,0.2c-0.6,0-0.8,0.3-0.8,0.5s0.3,0.5,0.9,0.5
			c1.9,0,4.9-0.2,5.8-0.2c0.7,0,4.6,0.2,7.4,0.2c0.6,0,1-0.2,1-0.5c0-0.3-0.3-0.5-0.6-0.5c-0.8,0-1.5-0.1-2.3-0.2
			c-1.5-0.2-1.7-1.1-1.8-2.4c-0.2-1.9-0.3-5.5-0.3-9.7v-0.6c0-0.2,0.1-0.4,0.3-0.4c0,0,0,0,0.1,0l4.2,0.1c0.3,0,0.6,0.1,0.9,0.3
			c0.6,0.7,2.6,3.8,4.5,6.2c2.6,3.6,4.4,5.7,6.5,6.7c1.6,0.7,3.4,1,5.2,0.9h4.5c0.6,0,0.9-0.1,0.9-0.5c0-0.3-0.3-0.5-0.6-0.5
			c-0.4,0-0.7,0-1.1-0.1c-0.8-0.2-2.4-0.4-5.1-3c-2.8-2.9-6.2-7-10.4-12.2c4.6-3.7,6.6-6.7,6.6-10.1c-0.1-2.5-1.3-4.8-3.3-6.3
			c-2.5-1.7-6-1.9-9-1.9C378,23.8,373.7,23.9,372.1,23.9 M236.5,23.6c-0.7,0.1-1.3,0.2-2,0.3c-0.9,0.1-11.4,0-12.9,0
			c-1.3,0-4.4-0.1-6.8-0.1c-0.7,0-1.1,0.1-1.1,0.4s0.3,0.5,0.8,0.5c0.6,0,1.3,0.1,1.9,0.2c1.5,0.4,1.9,0.9,2,2.5s0.1,2.7,0.1,9.7
			v8.1c0,4.2,0,7.8-0.2,9.7c-0.2,1.3-0.4,2.2-1.4,2.4c-0.6,0.1-1.1,0.2-1.7,0.2c-0.6,0-0.8,0.3-0.8,0.5s0.3,0.5,0.9,0.5
			c1,0,2.2-0.1,3.3-0.1s2.1-0.1,2.7-0.1c1.4,0,3.2,0.1,5.5,0.1s5.2,0.2,8.7,0.2c1.8,0,2.2,0,2.5-1.2c0.4-1.7,0.6-3.4,0.6-5.1
			c0-0.5-0.1-1.1-0.4-1.1s-0.4,0.2-0.5,0.7c-0.3,1.9-0.9,2.9-2,3.4c-1.5,0.5-3,0.7-4.5,0.6c-4.8,0-6.3-0.7-6.4-3.8
			c-0.1-1.3,0-5.2,0-6.8v-3.7c0-0.3,0.1-0.5,0.3-0.5c1.2,0,6.6,0.1,7.4,0.2c1.8,0.2,2.4,0.9,2.6,1.8c0.1,0.6,0.1,1.2,0.2,1.7
			c0,0.2,0.1,0.4,0.3,0.4c0,0,0,0,0.1,0c0.4,0,0.5-0.6,0.5-1s0.1-2.2,0.2-3.1c0.3-2.3,0.4-3.1,0.4-3.3c0-0.2-0.2-0.5-0.4-0.5
			c-0.2,0-0.4,0.3-0.8,0.6c-0.4,0.5-1.1,0.6-2.3,0.7s-7.2,0.1-8.3,0.1c-0.3,0-0.3-0.2-0.3-0.5V26.8c0-0.3,0.1-0.4,0.3-0.4
			c1,0,6.6,0.1,7.4,0.2c2.4,0.2,2.7,0.9,3.1,1.7c0.2,0.5,0.3,1.1,0.3,1.7c0,0.4,0.1,0.6,0.4,0.6s0.5-0.5,0.5-0.8
			c0.1-0.5,0.2-2.5,0.3-3c0.1-1,0.2-2,0.4-3c0-0.2-0.1-0.4-0.3-0.4L236.5,23.6 M461.9,23.6c-0.7,0.1-1.3,0.2-2,0.3
			c-0.9,0.1-11.4,0-12.9,0c-1.3,0-4.4-0.1-6.8-0.1c-0.7,0-1.1,0.1-1.1,0.4s0.3,0.5,0.8,0.5c0.6,0,1.3,0.1,1.9,0.2
			c1.5,0.4,1.9,0.9,2,2.5s0.1,2.7,0.1,9.7v8.1c0,4.2,0,7.8-0.2,9.7c-0.2,1.3-0.4,2.2-1.4,2.4c-0.6,0.1-1.1,0.2-1.7,0.2
			c-0.6,0-0.8,0.3-0.8,0.5s0.3,0.5,0.9,0.5c1,0,2.1-0.1,3.3-0.1s2.1-0.1,2.7-0.1c1.4,0,3.2,0.1,5.5,0.1s5.2,0.2,8.7,0.2
			c1.8,0,2.2,0,2.5-1.2c0.4-1.7,0.6-3.4,0.6-5.1c0-0.5-0.1-1.1-0.4-1.1s-0.4,0.2-0.5,0.7c-0.3,1.9-0.9,2.9-2,3.4
			c-1.5,0.5-3,0.7-4.5,0.6c-4.8,0-6.3-0.7-6.4-3.8c-0.1-1.3,0-5.2,0-6.8v-3.7c0-0.3,0.1-0.5,0.3-0.5c1.2,0,6.6,0.1,7.4,0.2
			c1.8,0.2,2.4,0.9,2.6,1.8c0.1,0.6,0.1,1.2,0.2,1.7c0,0.2,0.1,0.4,0.3,0.4c0,0,0,0,0.1,0c0.4,0,0.5-0.6,0.5-1s0.1-2.2,0.2-3.1
			c0.3-2.3,0.4-3.1,0.4-3.3c0-0.2-0.2-0.5-0.4-0.5c-0.2,0-0.4,0.3-0.8,0.6c-0.4,0.5-1.1,0.6-2.3,0.7s-7.2,0.1-8.3,0.1
			c-0.3,0-0.3-0.2-0.3-0.5V26.8c0-0.3,0.1-0.4,0.3-0.4c1,0,6.6,0.1,7.4,0.2c2.4,0.2,2.7,0.9,3.1,1.7c0.2,0.5,0.3,1.1,0.3,1.7
			c0,0.4,0.1,0.6,0.4,0.6s0.5-0.5,0.5-0.8c0.1-0.5,0.2-2.5,0.3-3c0.1-1,0.2-2,0.4-3c0-0.2-0.1-0.4-0.3-0.4
			C462.3,23.4,462.1,23.5,461.9,23.6 M328.4,39.6c0-11.3,6.2-14.1,11.5-14.1c7.6,0,13.7,6.2,13.7,16.4c0,13-7.5,14.6-10.9,14.6
			C333.7,56.5,328.4,49,328.4,39.6 M321.4,41c0,8.1,5.6,17.9,19.3,17.9c12.2,0,19.8-8.2,19.8-18.7s-7.4-17.1-19.4-17.1
			C326.8,23.1,321.4,33.2,321.4,41 M406.3,28c-3.5,3.2-5.5,7.7-5.5,12.5c0,4.4,1.2,9.6,5.9,13.5c4.3,3.6,9.8,5,16.2,5
			c3.1,0,6.7-0.3,8.5-1c0.8-0.3,1-0.5,1.2-1.3c0.5-2,0.8-4,1-6.1c0-0.4-0.2-0.8-0.5-0.8s-0.5,0.2-0.6,0.9c-0.3,1.1-0.8,2.2-1.6,3.1
			c-1.9,2.1-4.2,2.4-8.4,2.4c-6.3,0-14.7-5.2-14.7-16c0-4.5,0.9-8.9,4.4-11.9c2.1-1.8,4.8-2.6,8.9-2.6c4.4,0,7.5,1.1,9.1,2.7
			c1.1,1.1,1.8,2.6,1.8,4.2c0,0.6,0.1,1,0.5,1s0.6-0.5,0.6-1.1c0-1.7,0-3.3,0.2-5c0.1-1.6,0.2-2.2,0.2-2.5s-0.2-0.5-0.7-0.5
			c-1.4-0.2-3-0.5-4.7-0.8c-2.3-0.3-4.6-0.5-6.9-0.5C414.3,23.1,409.8,24.9,406.3,28 M472.4,32.3c0,4,1.8,7.1,7.4,10.4l2.7,1.6
			c4.2,2.5,4.7,4.5,4.7,6.5c0,3.2-2.5,5.8-6.6,5.8c-3,0-6.5-1.1-7.5-4.5c-0.3-0.8-0.4-1.6-0.4-2.4c0-0.3-0.1-0.8-0.5-0.8
			s-0.6,0.5-0.6,1.2s-0.3,3.6-0.3,6.1c0,1,0.2,1.2,0.9,1.6c2.5,0.9,5.1,1.3,7.7,1.2c2.5,0,5.6-0.3,7.9-1.9c3.4-2.4,4.7-5.2,4.7-8.6
			c0-4.1-1.9-7.6-8.2-11.1l-1.9-1.1c-4.2-2.4-5-4-5-6c0-3.1,3.1-4.9,6.4-4.9c3.1,0,4.6,1.3,5.3,2.2c0.7,0.9,1.1,1.9,1.2,3
			c0,0.5,0.2,0.8,0.5,0.8s0.6-0.5,0.6-1.5c0-3.6,0.2-4.9,0.2-5.5c0-0.3-0.2-0.5-0.6-0.6c-2.2-0.5-4.4-0.8-6.7-0.8
			C477.7,23.1,472.4,26.7,472.4,32.3 M138.5,41.4c-0.3-0.2-0.4-0.3-0.4-0.8V26.9c0-0.4,0.1-0.5,0.4-0.6c0.9-0.1,1.9-0.2,2.8-0.2
			c2.8,0,7.2,1.7,7.2,8.1c0,3.8-1.6,5.8-3.1,6.8c-0.8,0.6-1.5,0.8-3.3,0.8C140.9,41.8,139.7,41.7,138.5,41.4 M198.4,23.9l-12.7,25.8
			L173,24.2c-0.6-1.2-1-1.5-1.5-1.5s-0.8,0.4-0.9,1.2L166,53.8c-0.2,1.5-0.6,3.3-1.9,3.5c-0.2,0-0.3,0-0.5,0.1c-0.1,0-0.2,0-0.3-0.1
			c-0.8-0.2-2.4-0.4-5.1-3c-2.8-2.9-6.2-7-10.4-12.2c4.6-3.7,6.6-6.7,6.6-10.1c-0.1-2.5-1.3-4.8-3.3-6.3c-2.5-1.7-6-1.9-9-1.9
			c-1.5,0-5.8,0.1-7.4,0.1c-1,0-4-0.1-6.4-0.1c-0.7,0-1.1,0.1-1.1,0.4s0.3,0.5,0.8,0.5c0.6,0,1.3,0.1,1.9,0.2c1.5,0.4,1.9,0.9,2,2.5
			s0.1,2.7,0.1,9.7v8.1c0,4.2,0,7.8-0.2,9.7c-0.2,1.3-0.4,2.2-1.4,2.4c-0.6,0.1-1.1,0.2-1.7,0.2c-0.6,0-0.8,0.3-0.8,0.5
			s0.3,0.5,0.9,0.5c1.9,0,4.9-0.2,5.8-0.2c0.7,0,4.6,0.2,7.4,0.2c0.6,0,1-0.2,1-0.5c0-0.3-0.3-0.5-0.6-0.5c-0.8,0-1.5-0.1-2.3-0.2
			c-1.5-0.2-1.7-1.1-1.8-2.4c-0.2-1.9-0.3-5.5-0.3-9.7v-0.6c0-0.2,0.1-0.4,0.3-0.4c0,0,0,0,0.1,0l4.2,0.1c0.3,0,0.6,0.1,0.9,0.3
			c0.6,0.7,2.6,3.8,4.5,6.2c2.6,3.6,4.4,5.7,6.4,6.7c1.6,0.7,3.4,1,5.2,0.9h4.5c0.2,0,0.4,0,0.5-0.1c1.1,0,2.2-0.1,2.7-0.1
			c0.9,0,3,0.2,5,0.2c0.7,0,1.1-0.1,1.1-0.5c0-0.2-0.3-0.4-0.8-0.4s-0.9-0.1-1.7-0.2s-1.5-0.5-1.5-1.3c0-0.7,0.1-1.5,0.2-2.2
			l2.3-17.9h0.2c1.6,3.2,4.4,8.9,4.7,9.8c0.5,1.3,4.3,8.3,5.4,10.4c0.8,1.4,1.3,2.3,1.9,2.3s0.8-0.4,1.9-2.6l10.2-20.4h0.2l2.6,19.8
			c0.2,1.3,0.1,1.8-0.2,1.9s-0.5,0.3-0.5,0.5s0.3,0.5,1.4,0.5c1.9,0.1,8.6,0.3,9.8,0.3c0.7,0,1.2-0.2,1.2-0.5s-0.3-0.4-0.8-0.4
			c-0.9,0-1.8-0.2-2.7-0.4c-1.4-0.4-1.9-1.7-2.3-4.5l-4.3-28.2c-0.2-1-0.7-1.5-1.1-1.5C199.2,22.7,198.8,23.1,198.4,23.9
			 M314.1,17.6c-0.7,0.2-1.5,0.3-2.2,0.2c-1.2,0.1-12.1,0.1-14.2,0.1c-0.8,0-2-0.1-3.4-0.1s-3-0.1-4.4-0.1c-0.8,0-1.2,0.1-1.2,0.5
			s0.4,0.4,0.9,0.4c0.7,0,1.4,0.1,2.1,0.2c1.8,0.4,2.2,1.2,2.3,3.1c0.1,1.7,0.1,3.2,0.1,11.4v9.5c0.1,3.8,0,7.7-0.3,11.5
			c-0.2,1.6-0.5,2.7-1.6,3c-0.6,0.1-1.3,0.2-1.9,0.2c-0.6,0-0.8,0.2-0.8,0.4c0,0.4,0.4,0.5,1.1,0.5c2,0,5.4-0.2,6.8-0.2
			s4.8,0.2,8.2,0.2c0.8,0,1.2-0.2,1.2-0.5s-0.2-0.4-0.9-0.4c-0.9,0-1.8-0.1-2.7-0.2c-1.6-0.2-1.9-1.4-2.1-3
			c-0.3-3.8-0.4-7.7-0.3-11.5v-4.4c0-0.4,0.1-0.5,0.4-0.5c0.9,0,6.6,0,8,0.2c1.2,0,2.3,0.8,2.7,1.9c0.2,0.5,0.3,1.1,0.3,1.7
			c0,0.4,0.1,0.8,0.4,0.8c0.5,0,0.5-0.5,0.5-1s0.1-2.9,0.2-3.9c0.2-1.7,0.4-3,0.4-3.3s-0.1-0.5-0.3-0.5s-0.4,0.2-0.7,0.5
			c-0.6,0.7-1.4,1-2.3,1c-0.8,0.1-1.6,0.1-2.4,0.1l-6.9,0.1c-0.3,0-0.4-0.2-0.4-0.5V21.3c0-0.6,0.2-0.8,0.5-0.8l8.3,0.2
			c2,0.1,3.2,0.9,3.5,1.6c0.2,0.6,0.3,1.3,0.3,2c0.1,0.6,0.2,0.9,0.5,0.9s0.5-0.3,0.5-0.8s0.2-3.8,0.3-4.4c0.2-1.4,0.4-2,0.4-2.4
			c0-0.2-0.2-0.5-0.4-0.5C314.7,17.3,314.4,17.5,314.1,17.6 M98.5,41.2l4.9-13.2c0.1-0.2,0.2-0.5,0.3-0.5s0.2,0.3,0.3,0.5l4.8,13.3
			c0.1,0.2,0,0.3-0.3,0.3h-9.9C98.5,41.6,98.4,41.5,98.5,41.2 M103.6,18.7L90.1,52.4C89,55.1,88,57,85.5,57.3
			c-0.6,0.1-1.1,0.1-1.7,0.1c-0.4,0-0.6,0.1-0.6,0.4s0.3,0.5,1,0.5c2.8,0,5.8-0.2,6.3-0.2c1.7,0,4,0.2,5.7,0.2
			c0.6,0,0.9-0.1,0.9-0.5s-0.2-0.4-0.8-0.4h-0.8c-1.7,0-2.1-0.7-2.1-1.7c0.1-1.1,0.4-2.2,0.8-3.3l2.9-7.7c0.1-0.3,0.2-0.4,0.5-0.4
			h12c0.3,0,0.4,0.1,0.5,0.4l4.3,11.4c0.2,0.4,0.1,0.9-0.3,1.1c-0.1,0-0.1,0.1-0.2,0.1c-0.5,0.1-0.8,0.2-0.8,0.5s0.6,0.4,1.6,0.4
			c4.3,0.1,8.2,0.1,10.2,0.1s2.5-0.1,2.5-0.5s-0.3-0.4-0.7-0.4c-0.8,0-1.5-0.1-2.3-0.2c-1.1-0.3-2.7-1-4.7-5.9
			c-3.4-8.2-12-30.1-13.3-33.1c-0.5-1.2-0.9-1.7-1.3-1.7S104.3,17.1,103.6,18.7"/>
		<path class="st0" d="M635.1,24.3c-1.1,0-2.6-0.1-3.5-0.1c-0.3,0-0.5,0.1-0.5,0.3c0,0.2,0.2,0.4,0.4,0.4c0.4,0.1,0.6,0.3,0.6,0.9
			c0,0.8-1.2,1.9-2.6,3.3l-11,11h-0.2v-2.7c0-7.1,0-8.4,0.1-9.8c0.1-1.6,0.4-2.3,1.7-2.5c0.4-0.1,0.8-0.1,1.2-0.1
			c0.2,0,0.4-0.2,0.4-0.4c0-0.3-0.2-0.4-0.8-0.4c-1.4,0-4.2,0.1-4.7,0.1c-0.3,0-3.2-0.1-5.3-0.1c-0.5,0-0.8,0.1-0.8,0.4
			c0,0.2,0.2,0.4,0.4,0.4c0.4,0,1.2,0.1,1.6,0.1c1.6,0.2,1.8,1,1.9,2.5s0.1,2.7,0.1,9.8v8.1c0.1,3.3,0,6.6-0.3,9.9
			c-0.2,1.3-0.3,2.2-1.2,2.4c-0.5,0.1-1,0.2-1.5,0.2c-0.2,0-0.4,0.1-0.4,0.3c0,0,0,0,0,0.1c0,0.3,0.3,0.4,0.8,0.4
			c1.5,0,4.3-0.2,4.7-0.2s3.2,0.2,5.5,0.2c0.5,0,0.8-0.2,0.8-0.4c0-0.2-0.1-0.4-0.3-0.4c0,0,0,0-0.1,0c-0.6,0-1.2-0.1-1.8-0.2
			c-1.4-0.2-1.7-1.1-1.8-2.4c-0.2-1.9-0.2-5.5-0.2-9.9V41h0.2c2.3,2.7,12.2,13.2,14.3,14.8s3.3,2.6,5.8,2.8c1.1,0.1,1.9,0.1,3.3,0.1
			h2.4c0.2,0,0.5,0,0.7-0.1v-0.7h-0.3c-1-0.1-2-0.3-2.9-0.6c-2.3-0.9-2.8-1.5-6.8-5.1c-1.9-1.8-11.8-11.6-13-13
			c1-1.1,9.1-8.9,10.3-10c2.1-2,3-3,4.9-3.9c0.8-0.4,1.7-0.6,2.6-0.6c0.4,0,0.5-0.2,0.5-0.4s-0.2-0.3-0.7-0.3
			C638.5,24.2,635.4,24.3,635.1,24.3 M569.5,25.9v26.2c0,4.1-0.2,5.4-1.3,5.7c-0.6,0.2-1.3,0.3-1.9,0.3c-0.2,0-0.4,0.2-0.4,0.4
			c0,0.3,0.3,0.4,0.7,0.4c2.2,0,4.1-0.2,4.6-0.2s2.3,0.2,5,0.2c0.5,0,0.9-0.1,0.9-0.4c0-0.2-0.2-0.4-0.4-0.4c-0.8,0-1.6-0.1-2.4-0.3
			c-1.3-0.3-1.7-1.5-1.8-5.2L571.9,31c1.5,1.6,6.8,7.2,12.3,13c5,5.2,11.8,11.9,12.3,12.4c2.6,2.4,3.1,2.8,3.6,2.8
			c0.3,0,0.4-0.3,0.4-3.3l0.1-26.8c0-2.7,0.1-3.7,1.7-4c0.4-0.1,0.7-0.1,1.1-0.1c0.2,0,0.4-0.2,0.5-0.4c0-0.3-0.4-0.3-0.9-0.3
			c-1.9,0-3.5,0.1-4,0.1s-2.8-0.1-4.9-0.1c-0.5,0-0.9,0.1-0.9,0.3c0,0.2,0.1,0.4,0.3,0.4c0,0,0,0,0.1,0c0.4,0,1.5,0.1,2.3,0.2
			c1.4,0.3,1.7,1.3,1.8,4.2l0.5,22.9c-1.5-1.5-6.5-6.9-11.2-11.8c-7.4-7.5-14.3-14.8-15-15.5c-0.5-0.5-1.3-1.4-1.8-1.4
			S569.5,24.1,569.5,25.9 M539.7,43.9l4.4-12.5c0.3-0.7,0.5-0.7,0.8,0l4.7,12.5c0.1,0.2,0.1,0.3-0.2,0.3h-9.6
			C539.7,44.2,539.6,44.1,539.7,43.9 M544.1,25.1L533,53.8c-0.9,2.3-1.8,3.9-4,4.2c-0.5,0.1-0.9,0.1-1.4,0.1c-0.2,0-0.4,0.2-0.4,0.4
			c0,0.3,0.3,0.4,0.9,0.4c1.9,0,4.3-0.2,4.8-0.2s3.1,0.2,4.2,0.2c0.4,0,0.7-0.1,0.7-0.4s-0.1-0.4-0.5-0.4h-0.4
			c-0.8,0-1.6-0.3-1.6-1.2c0.1-1.1,0.3-2.1,0.7-3.1l2.7-7.3c0.1-0.2,0.3-0.4,0.5-0.4h10.9c0.3,0,0.3,0.1,0.4,0.3l4.2,10.5
			c0.2,0.4,0.1,0.9-0.3,1.2c0,0-0.1,0-0.1,0c-0.2,0.1-0.3,0.1-0.3,0.3s0.8,0.3,1.7,0.3c3.3,0.1,6.8,0.1,7.5,0.1
			c0.5,0,1.1-0.1,1.1-0.4S564,58,563.7,58c-0.6,0-1.3-0.1-1.9-0.3c-1-0.3-2.3-0.9-4-5c-2.9-6.9-10.5-25.8-11.3-27.8
			c-0.5-1-0.6-1.7-1.1-1.7C544.9,23.4,544.7,23.6,544.1,25.1 M507.8,56.4c-1.7-0.8-1.7-1.6-1.8-4.2c-0.1-0.8-0.1-7.5-0.1-11.6v-3.1
			c0-0.3,0.1-0.4,0.3-0.4c0.8,0,3.5,0,4.2,0.1c1.6,0.1,3.2,0.7,4.5,1.6c3.4,2.5,5.3,6.6,5.2,10.8c0,6.1-4.7,7.6-7.6,7.6
			C510.9,57.3,509.3,57,507.8,56.4 M506.2,35.5c-0.3-0.1-0.4-0.2-0.4-0.6V20.5c0-0.3,0.2-0.5,0.6-0.6c0.9-0.2,1.7-0.3,2.6-0.3
			c5.3,0,7.3,4.8,7.3,9.3c0,2-0.7,3.9-1.9,5.4c-1.1,1.3-1.9,1.4-4.9,1.4C508.4,35.7,507.3,35.7,506.2,35.5 M503.8,18.3
			c-0.3,0-3.7-0.2-6.1-0.2c-0.6,0-0.9,0.1-0.9,0.4s0.2,0.3,0.4,0.3c0.6,0,1.2,0.1,1.8,0.2c1.8,0.4,2.2,1.2,2.3,3.1
			c0.1,1.7,0.1,3.2,0.1,11.6v9.5c0,5.2,0,9.4-0.3,11.7c-0.2,1.6-0.5,2.7-1.6,3c-0.5,0.1-1.1,0.2-1.6,0.2c-0.3,0-0.4,0.2-0.4,0.3
			c0,0.3,0.3,0.4,0.9,0.4c0.8,0,2-0.1,3.1-0.1h2.1c1.1,0,2.2,0.1,3.3,0.2c1.6,0.1,3.3,0.2,3.9,0.2c9.2,0,13.7-6,13.7-11.7
			c0-6.3-5.3-10.1-9.3-11.4c2.5-2.6,5.1-5.3,5.1-9.7c0-2.7-1.9-8.1-10.7-8.1C507.2,18.1,505.1,18.3,503.8,18.3"/>
		<path class="st1" d="M0,0v50.6c13.8,2.5,62.2-11.2,78.8-41.5V0H0z"/>
		<path class="st1" d="M5.5,72.9c0.9,0,49.1-5.3,68.7-43c-1.6,5.5-6.7,26.3-11.4,43c-5.1-0.1-16.9,0-28.7,0H15
			C11.1,73,7.7,72.9,5.5,72.9 M78.7,14.6C64.1,56.3,21.1,62.6,0,65.1V79h78.8C78.8,79,78.7,14.6,78.7,14.6z"/>
	</g>
</g>
</svg>
