<svg width="35" height="36" viewBox="0 0 35 36" fill="none" xmlns="http://www.w3.org/2000/svg">
<path d="M31.25 0.884766H3.75C2.75544 0.884766 1.80161 1.27985 1.09835 1.98312C0.395088 2.68638 0 3.6402 0 4.63477L0 32.1348C0 33.1293 0.395088 34.0832 1.09835 34.7864C1.80161 35.4897 2.75544 35.8848 3.75 35.8848H14.4727V23.9855H9.55078V18.3848H14.4727V14.116C14.4727 9.26055 17.3633 6.57852 21.7906 6.57852C23.9109 6.57852 26.1281 6.95664 26.1281 6.95664V11.7223H23.6852C21.2781 11.7223 20.5273 13.216 20.5273 14.748V18.3848H25.9008L25.0414 23.9855H20.5273V35.8848H31.25C32.2446 35.8848 33.1984 35.4897 33.9016 34.7864C34.6049 34.0832 35 33.1293 35 32.1348V4.63477C35 3.6402 34.6049 2.68638 33.9016 1.98312C33.1984 1.27985 32.2446 0.884766 31.25 0.884766Z" fill="#D71920"/>
</svg>
