<svg width="35" height="36" viewBox="0 0 35 36" fill="none" xmlns="http://www.w3.org/2000/svg">
<path d="M0 3.39164C0 2.00695 1.15062 0.884766 2.57031 0.884766H32.4297C33.8494 0.884766 35 2.00695 35 3.39164V33.3779C35 34.7626 33.8494 35.8848 32.4297 35.8848H2.57031C1.15062 35.8848 0 34.7626 0 33.3779V3.39164ZM10.8128 30.1841V14.3795H5.56063V30.1841H10.8128ZM8.18781 12.2204C10.0188 12.2204 11.1584 11.0085 11.1584 9.49039C11.1256 7.93945 10.0209 6.76039 8.22281 6.76039C6.42469 6.76039 5.25 7.94164 5.25 9.49039C5.25 11.0085 6.38969 12.2204 8.15281 12.2204H8.18781ZM18.9241 30.1841V21.3576C18.9241 20.8851 18.9591 20.4126 19.0991 20.0757C19.4775 19.1329 20.3416 18.1551 21.7941 18.1551C23.695 18.1551 24.4541 19.6032 24.4541 21.7295V30.1841H29.7062V21.1191C29.7062 16.2629 27.1163 14.0054 23.66 14.0054C20.8731 14.0054 19.6241 15.5366 18.9241 16.6151V16.6698H18.8891C18.9007 16.6515 18.9123 16.6333 18.9241 16.6151V14.3795H13.6741C13.7397 15.8626 13.6741 30.1841 13.6741 30.1841H18.9241Z" fill="#0072b1"/>
</svg>
